<svg width="24" height="24" viewBox="0 0 24 24" fill="none"
    xmlns="http://www.w3.org/2000/svg">
    <g clip-path="url(#clip0_1_8994)">
        <path d="M12 5.4C12.8525 5.4 13.67 5.71607 14.2728 6.27868C14.8756 6.84129 15.2143 7.60435 15.2143 8.4C15.2143 8.79397 15.1311 9.18407 14.9696 9.54805C14.8081 9.91203 14.5713 10.2427 14.2728 10.5213C13.9744 10.7999 13.62 11.0209 13.2301 11.1716C12.8401 11.3224 12.4221 11.4 12 11.4C11.1475 11.4 10.33 11.0839 9.72716 10.5213C9.12436 9.95871 8.78571 9.19565 8.78571 8.4C8.78571 7.60435 9.12436 6.84129 9.72716 6.27868C10.33 5.71607 11.1475 5.4 12 5.4ZM12 0C14.3869 0 16.6761 0.884997 18.364 2.4603C20.0518 4.03561 21 6.17218 21 8.4C21 14.7 12 24 12 24C12 24 3 14.7 3 8.4C3 6.17218 3.94821 4.03561 5.63604 2.4603C7.32387 0.884997 9.61305 0 12 0ZM12 2.4C10.295 2.4 8.6599 3.03214 7.45431 4.15736C6.24872 5.28258 5.57143 6.8087 5.57143 8.4C5.57143 9.6 5.57143 12 12 20.052C18.4286 12 18.4286 9.6 18.4286 8.4C18.4286 6.8087 17.7513 5.28258 16.5457 4.15736C15.3401 3.03214 13.705 2.4 12 2.4Z" fill="#007C16"/>
    </g>
    <defs>
        <clipPath id="clip0_1_8994">
            <rect width="24" height="24" fill="white"/>
        </clipPath>
    </defs>
</svg>
