<svg width="21" height="22" viewBox="0 0 21 22" fill="none"
    xmlns="http://www.w3.org/2000/svg">
    <mask id="path-1-inside-1_768_3939" fill="white">
        <path d="M7.5 2.75C7.5 1.53125 8.48438 0.5 9.75 0.5H11.25C12.4688 0.5 13.5 1.53125 13.5 2.75V19.25C13.5 20.5156 12.4688 21.5 11.25 21.5H9.75C8.48438 21.5 7.5 20.5156 7.5 19.25V2.75ZM0 11.75C0 10.5312 0.984375 9.5 2.25 9.5H3.75C4.96875 9.5 6 10.5312 6 11.75V19.25C6 20.5156 4.96875 21.5 3.75 21.5H2.25C0.984375 21.5 0 20.5156 0 19.25V11.75ZM18.75 3.5C19.9688 3.5 21 4.53125 21 5.75V19.25C21 20.5156 19.9688 21.5 18.75 21.5H17.25C15.9844 21.5 15 20.5156 15 19.25V5.75C15 4.53125 15.9844 3.5 17.25 3.5H18.75Z"/>
    </mask>
    <path d="M9 2.75C9 2.33926 9.33308 2 9.75 2V-1C7.63567 -1 6 0.723244 6 2.75H9ZM9.75 2H11.25V-1H9.75V2ZM11.25 2C11.6403 2 12 2.35968 12 2.75H15C15 0.702823 13.2972 -1 11.25 -1V2ZM12 2.75V19.25H15V2.75H12ZM12 19.25C12 19.6669 11.6607 20 11.25 20V23C13.2768 23 15 21.3643 15 19.25H12ZM11.25 20H9.75V23H11.25V20ZM9.75 20C9.3128 20 9 19.6872 9 19.25H6C6 21.3441 7.65595 23 9.75 23V20ZM9 19.25V2.75H6V19.25H9ZM1.5 11.75C1.5 11.3393 1.83308 11 2.25 11V8C0.135673 8 -1.5 9.72324 -1.5 11.75H1.5ZM2.25 11H3.75V8H2.25V11ZM3.75 11C4.14032 11 4.5 11.3597 4.5 11.75H7.5C7.5 9.70282 5.79718 8 3.75 8V11ZM4.5 11.75V19.25H7.5V11.75H4.5ZM4.5 19.25C4.5 19.6669 4.16074 20 3.75 20V23C5.77676 23 7.5 21.3643 7.5 19.25H4.5ZM3.75 20H2.25V23H3.75V20ZM2.25 20C1.8128 20 1.5 19.6872 1.5 19.25H-1.5C-1.5 21.3441 0.155948 23 2.25 23V20ZM1.5 19.25V11.75H-1.5V19.25H1.5ZM18.75 5C19.1403 5 19.5 5.35968 19.5 5.75H22.5C22.5 3.70282 20.7972 2 18.75 2V5ZM19.5 5.75V19.25H22.5V5.75H19.5ZM19.5 19.25C19.5 19.6669 19.1607 20 18.75 20V23C20.7768 23 22.5 21.3643 22.5 19.25H19.5ZM18.75 20H17.25V23H18.75V20ZM17.25 20C16.8128 20 16.5 19.6872 16.5 19.25H13.5C13.5 21.3441 15.1559 23 17.25 23V20ZM16.5 19.25V5.75H13.5V19.25H16.5ZM16.5 5.75C16.5 5.33926 16.8331 5 17.25 5V2C15.1357 2 13.5 3.72324 13.5 5.75H16.5ZM17.25 5H18.75V2H17.25V5Z" fill="#464747" mask="url(#path-1-inside-1_768_3939)"/>
</svg>
