<svg width="26" height="26" viewBox="0 0 26 26" fill="none"
    xmlns="http://www.w3.org/2000/svg">
    <path fill-rule="evenodd" clip-rule="evenodd" d="M8.93804 14.0526C8.65765 13.7708 8.50055 13.3893 8.50127 12.9918C8.50198 12.5943 8.66045 12.2133 8.94185 11.9326L14.608 6.28476C14.8899 6.00401 15.2718 5.84674 15.6697 5.84755C16.0675 5.84835 16.4488 6.00718 16.7295 6.28908C17.0103 6.57098 17.1675 6.95286 17.1667 7.35072C17.1659 7.74858 17.0071 8.12982 16.7252 8.41057L12.1209 12.9983L16.7087 17.6026C16.9815 17.8858 17.1322 18.2649 17.1283 18.6582C17.1243 19.0515 16.9661 19.4275 16.6876 19.7053C16.4091 19.983 16.0327 20.1403 15.6394 20.1432C15.2461 20.1461 14.8674 19.9944 14.5849 19.7207L8.93804 14.0526Z" fill="black"/>
</svg>
