<svg width="25" height="25" viewBox="0 0 25 25" fill="none"
    xmlns="http://www.w3.org/2000/svg">
    <path fill-rule="evenodd" clip-rule="evenodd" d="M13.1886 16.2721C12.9027 16.5483 12.519 16.6998 12.1215 16.6933C11.7241 16.6868 11.3455 16.5228 11.0689 16.2373L5.5044 10.4892C5.2278 10.2033 5.07612 9.81913 5.08274 9.42132C5.08936 9.02352 5.25374 8.64464 5.53971 8.36803C5.82568 8.09143 6.20982 7.93975 6.60762 7.94637C7.00543 7.95299 7.38431 8.11737 7.66092 8.40334L12.1809 13.0741L16.8517 8.55414C17.1389 8.28544 17.5202 8.14031 17.9134 8.14999C18.3065 8.15967 18.6802 8.3234 18.9539 8.60591C19.2275 8.88842 19.3792 9.26711 19.3764 9.66041C19.3735 10.0537 19.2163 10.4302 18.9386 10.7087L13.1886 16.2721Z" fill="#007C16"/>
</svg>
