<svg width="24" height="24" viewBox="0 0 24 24" fill="none"
    xmlns="http://www.w3.org/2000/svg">
    <g opacity="0.88" clip-path="url(#clip0_768_3960)">
        <path d="M20.1399 9.20141C20.0516 9.04755 20.0413 8.97448 20.2153 8.86577C21.4993 8.06379 21.9122 6.45004 21.178 5.15737C20.4379 3.85489 18.8397 3.40193 17.5001 4.12846C17.3201 4.22588 17.2645 4.17806 17.1761 4.02212C16.5871 2.98014 15.9981 1.93906 15.393 0.907181C14.9306 0.116787 14.0327 -0.194796 13.2066 0.122728C12.3806 0.440251 11.9203 1.28263 12.0926 2.17638C12.1152 2.2952 12.1055 2.37391 12.0351 2.47074C10.13 5.08608 7.80589 7.23627 5.0344 8.88983C4.30258 9.32646 3.55486 9.73636 2.82863 10.1819C1.9914 10.6932 1.38251 11.5111 1.12923 12.4646C0.875946 13.4182 0.997878 14.4335 1.46954 15.2985C1.82705 15.9554 2.1991 16.604 2.58567 17.2444C3.59343 18.9166 5.56007 19.5633 7.35178 18.8115C7.52229 18.7399 7.60799 18.7761 7.7249 18.8947C8.98573 20.1731 10.2494 21.4484 11.5159 22.7207C11.8864 23.0937 12.1862 23.0935 12.5599 22.7177C13.1754 22.0991 13.7899 21.4794 14.4035 20.8586C14.778 20.4799 14.7813 20.1805 14.4108 19.8047C13.8436 19.2311 13.2753 18.6585 12.706 18.087C12.2316 17.6118 11.7551 17.1365 11.2677 16.65C11.3224 16.6203 11.3481 16.6034 11.3752 16.5906C13.7632 15.4809 16.2573 14.7526 18.8748 14.4657C18.9961 14.4523 19.088 14.4731 19.1863 14.5616C19.636 14.9659 20.17 15.1102 20.7539 14.9807C21.9681 14.7116 22.528 13.3827 21.9004 12.2706C21.3216 11.2435 20.7348 10.2204 20.1399 9.20141ZM18.049 5.1835C18.2964 5.05578 18.5496 4.97172 18.807 4.98301C19.5406 4.99073 20.1376 5.46657 20.3072 6.16043C20.4677 6.81687 20.1535 7.52677 19.5642 7.87102C19.4449 7.94023 19.4016 7.91082 19.3415 7.80419C18.8925 7.00974 18.4395 6.21766 17.9824 5.42796C17.9097 5.30321 17.9206 5.24944 18.0481 5.1835H18.049ZM7.2116 17.545C6.75395 17.8081 6.3396 17.9189 5.65077 17.918C4.91778 17.8913 4.15445 17.5043 3.64674 16.6865C3.24426 16.038 2.86407 15.3758 2.50616 14.6997C1.84855 13.4584 2.24406 11.9653 3.43087 11.2212C4.15209 10.7688 4.90335 10.3643 5.63222 9.92527C5.79272 9.82874 5.82011 9.9229 5.87901 10.026C6.5051 11.1228 7.13228 12.2179 7.76053 13.3114C8.28474 14.2262 8.80658 15.1426 9.33638 16.0539C9.4156 16.1902 9.43562 16.2618 9.27218 16.353C8.5807 16.7418 7.89954 17.149 7.21189 17.545H7.2116ZM13.1097 20.1912C13.1498 20.2316 13.2096 20.2506 13.2711 20.2883C13.196 20.37 13.1645 20.4071 13.1312 20.4398C12.8038 20.7704 12.4722 21.0965 12.1515 21.4334C12.0572 21.532 12.0074 21.5225 11.9179 21.4307C10.8621 20.3602 9.80344 19.2927 8.74209 18.2281C8.63813 18.1242 8.65698 18.0847 8.77448 18.0202C9.19266 17.7861 9.60937 17.5482 10.0181 17.2978C10.1395 17.2236 10.199 17.2545 10.2861 17.343C11.225 18.2945 12.1663 19.2439 13.11 20.1912H13.1097ZM18.1603 13.3527C15.592 13.6788 13.1477 14.4392 10.8035 15.5326C10.4929 15.6778 10.4932 15.679 10.3176 15.3725C9.17892 13.3822 8.03893 11.3921 6.89766 9.4022C6.81638 9.26141 6.80578 9.19013 6.95215 9.08795C9.14466 7.55884 11.0715 5.7437 12.6883 3.59975C12.7033 3.58014 12.7198 3.56143 12.7552 3.51836C13.6198 5.03024 14.4694 6.51568 15.3193 8.00112C16.2974 9.71022 17.2765 11.4187 18.2566 13.1266C18.3388 13.2692 18.3553 13.3277 18.1603 13.3527ZM20.9725 13.2042C20.9677 13.4804 20.814 13.6999 20.5825 13.7855C20.4691 13.8265 20.346 13.8322 20.2293 13.8018C20.1126 13.7714 20.0077 13.7063 19.9282 13.615C19.8727 13.5428 19.8234 13.466 19.7809 13.3854C17.6559 9.67349 15.5304 5.96182 13.4045 2.25035C13.3212 2.1045 13.2408 1.95985 13.2464 1.7852C13.2514 1.66376 13.2924 1.54662 13.364 1.44889C13.4357 1.35115 13.5347 1.27731 13.6484 1.23688C13.7626 1.19755 13.886 1.19416 14.0021 1.22716C14.1183 1.26015 14.2218 1.32797 14.2989 1.42163C14.3626 1.50866 14.4195 1.60052 14.4691 1.69639C16.5832 5.38608 18.6967 9.07587 20.8096 12.7658C20.8929 12.9095 20.9875 13.05 20.9725 13.2039V13.2042Z" fill="#464747"/>
    </g>
    <defs>
        <clipPath id="clip0_768_3960">
            <rect width="24" height="24" fill="white"/>
        </clipPath>
    </defs>
</svg>
