<svg width="24" height="24" viewBox="0 0 24 24" fill="none"
    xmlns="http://www.w3.org/2000/svg">
    <path d="M16.9019 8.00505H17.7197V8.80472C17.7197 9.0168 17.8058 9.2202 17.9592 9.37016C18.1125 9.52013 18.3205 9.60438 18.5374 9.60438C18.7543 9.60438 18.9623 9.52013 19.1157 9.37016C19.269 9.2202 19.3552 9.0168 19.3552 8.80472V8.00505H20.1729C20.3898 8.00505 20.5978 7.9208 20.7512 7.77084C20.9045 7.62087 20.9907 7.41747 20.9907 7.20539C20.9907 6.99331 20.9045 6.78991 20.7512 6.63994C20.5978 6.48998 20.3898 6.40573 20.1729 6.40573H19.3552V5.60606C19.3552 5.39398 19.269 5.19058 19.1157 5.04062C18.9623 4.89065 18.7543 4.8064 18.5374 4.8064C18.3205 4.8064 18.1125 4.89065 17.9592 5.04062C17.8058 5.19058 17.7197 5.39398 17.7197 5.60606V6.40573H16.9019C16.685 6.40573 16.477 6.48998 16.3237 6.63994C16.1703 6.78991 16.0841 6.99331 16.0841 7.20539C16.0841 7.41747 16.1703 7.62087 16.3237 7.77084C16.477 7.9208 16.685 8.00505 16.9019 8.00505ZM18.5374 15.202C18.0298 15.2046 17.5355 15.361 17.1227 15.6498L15.1192 14.4903C15.2137 14.2034 15.2633 13.9041 15.2664 13.6027C15.264 12.8953 15.022 12.2087 14.5781 11.6502C14.1342 11.0917 13.5135 10.6928 12.8131 10.516V8.66078C13.3587 8.47214 13.8186 8.10096 14.1114 7.61284C14.4042 7.12471 14.5112 6.55108 14.4133 5.99332C14.3154 5.43555 14.0191 4.92958 13.5766 4.56482C13.1342 4.20006 12.5741 4 11.9953 4C11.4166 4 10.8565 4.20006 10.4141 4.56482C9.97162 4.92958 9.67527 5.43555 9.5774 5.99332C9.47954 6.55108 9.58647 7.12471 9.87929 7.61284C10.1721 8.10096 10.632 8.47214 11.1776 8.66078V10.516C10.4772 10.6928 9.85651 11.0917 9.41261 11.6502C8.96872 12.2087 8.72666 12.8953 8.72431 13.6027C8.72735 13.9041 8.77698 14.2034 8.87151 14.4903L6.868 15.6498C6.45516 15.361 5.96087 15.2046 5.45328 15.202C4.96807 15.202 4.49375 15.3427 4.09031 15.6063C3.68687 15.8699 3.37243 16.2446 3.18675 16.683C3.00106 17.1213 2.95248 17.6037 3.04714 18.069C3.1418 18.5344 3.37545 18.9618 3.71855 19.2974C4.06165 19.6329 4.49878 19.8613 4.97467 19.9539C5.45056 20.0465 5.94383 19.999 6.39211 19.8174C6.84038 19.6358 7.22353 19.3283 7.4931 18.9338C7.76267 18.5393 7.90656 18.0755 7.90656 17.601C7.90353 17.3844 7.87052 17.1692 7.80842 16.9613L9.68927 15.8657C10.3021 16.4615 11.1312 16.7959 11.9953 16.7959C12.8595 16.7959 13.6886 16.4615 14.3014 15.8657L16.1823 16.9613C16.0453 17.4456 16.0672 17.9597 16.245 18.4311C16.4228 18.9025 16.7475 19.3075 17.1733 19.5888C17.599 19.8701 18.1044 20.0136 18.618 19.999C19.1317 19.9844 19.6276 19.8124 20.036 19.5074C20.4443 19.2024 20.7444 18.7797 20.8939 18.2989C21.0434 17.8182 21.0347 17.3037 20.8692 16.828C20.7036 16.3523 20.3895 15.9395 19.9711 15.6478C19.5527 15.356 19.0513 15.2001 18.5374 15.202ZM5.45328 18.4007C5.29154 18.4007 5.13344 18.3538 4.99896 18.2659C4.86448 18.178 4.75966 18.0531 4.69777 17.907C4.63587 17.7609 4.61968 17.6001 4.65123 17.445C4.68279 17.2899 4.76067 17.1474 4.87504 17.0356C4.9894 16.9237 5.13511 16.8476 5.29374 16.8167C5.45237 16.7859 5.6168 16.8017 5.76622 16.8622C5.91565 16.9227 6.04336 17.0252 6.13322 17.1567C6.22308 17.2882 6.27104 17.4429 6.27104 17.601C6.27104 17.8131 6.18488 18.0165 6.03152 18.1665C5.87816 18.3164 5.67016 18.4007 5.45328 18.4007ZM11.9953 5.60606C12.1571 5.60606 12.3152 5.65296 12.4497 5.74083C12.5842 5.8287 12.689 5.95359 12.7509 6.09971C12.8128 6.24583 12.8289 6.40662 12.7974 6.56173C12.7658 6.71685 12.688 6.85934 12.5736 6.97117C12.4592 7.08301 12.3135 7.15917 12.1549 7.19003C11.9963 7.22088 11.8318 7.20504 11.6824 7.14452C11.533 7.084 11.4053 6.9815 11.3154 6.85C11.2256 6.71849 11.1776 6.56389 11.1776 6.40573C11.1776 6.19364 11.2637 5.99025 11.4171 5.84028C11.5705 5.69032 11.7785 5.60606 11.9953 5.60606ZM11.9953 15.202C11.6719 15.202 11.3557 15.1082 11.0867 14.9325C10.8177 14.7567 10.6081 14.507 10.4843 14.2147C10.3605 13.9225 10.3282 13.6009 10.3913 13.2907C10.4544 12.9804 10.6101 12.6955 10.8389 12.4718C11.0676 12.2481 11.359 12.0958 11.6763 12.0341C11.9935 11.9724 12.3224 12.0041 12.6212 12.1251C12.9201 12.2462 13.1755 12.4511 13.3552 12.7142C13.5349 12.9772 13.6309 13.2864 13.6309 13.6027C13.6309 14.0269 13.4586 14.4337 13.1518 14.7336C12.8451 15.0335 12.4291 15.202 11.9953 15.202ZM18.5374 18.4007C18.3757 18.4007 18.2176 18.3538 18.0831 18.2659C17.9486 18.178 17.8438 18.0531 17.7819 17.907C17.72 17.7609 17.7038 17.6001 17.7354 17.445C17.7669 17.2899 17.8448 17.1474 17.9592 17.0356C18.0735 16.9237 18.2193 16.8476 18.3779 16.8167C18.5365 16.7859 18.7009 16.8017 18.8504 16.8622C18.9998 16.9227 19.1275 17.0252 19.2174 17.1567C19.3072 17.2882 19.3552 17.4429 19.3552 17.601C19.3552 17.8131 19.269 18.0165 19.1157 18.1665C18.9623 18.3164 18.7543 18.4007 18.5374 18.4007Z" fill="#007C16"/>
</svg>
