<svg width="29" height="25" viewBox="0 0 29 25" fill="none"
    xmlns="http://www.w3.org/2000/svg">
    <path d="M14.4196 15.2378C14.4196 17.1748 14.3498 18.7311 12.54 19.9363" stroke="white"/>
    <path d="M14.4898 9.39551C14.4338 6.16005 14.3669 4.44308 15.8296 3.9615" stroke="white"/>
    <path d="M1.29443 4.67286C1.29443 2.73986 2.86144 1.17285 4.79443 1.17285H24.0457C25.9787 1.17285 27.5457 2.73985 27.5457 4.67285V20.1653C27.5457 22.0983 25.9787 23.6653 24.0457 23.6653H4.79443C2.86143 23.6653 1.29443 22.0983 1.29443 20.1653V4.67286Z" stroke="white"/>
    <path d="M4.1134 5.4917C4.1134 4.66327 4.78498 3.9917 5.6134 3.9917H23.2265C24.0549 3.9917 24.7265 4.66327 24.7265 5.4917V18.4063C24.7265 19.2347 24.0549 19.9063 23.2265 19.9063H5.61341C4.78498 19.9063 4.1134 19.2347 4.1134 18.4063V5.4917Z" stroke="white"/>
    <path d="M4.1134 7.75049H10.631V16.1475H4.1134V7.75049Z" stroke="white"/>
    <path d="M4.1134 12.4492H10.631V16.1477H4.1134V12.4492Z" stroke="white"/>
    <path d="M10.1913 9.12988H18.6486M18.6486 14.7681H10.1913" stroke="white"/>
    <path d="M18.2086 12.4492H24.7262V16.1477H18.2086V12.4492Z" stroke="white"/>
    <path d="M18.2086 7.75049H24.7262V16.1475H18.2086V7.75049Z" stroke="white"/>
</svg>
