<svg width="16" height="16" viewBox="0 0 16 16" fill="none"
    xmlns="http://www.w3.org/2000/svg">
    <circle cx="8" cy="8" r="8" fill="#6D7275"/>
    <path d="M12.0554 13.0554C11.8304 13.2804 11.5252 13.4069 11.2069 13.4069C10.8887 13.4069 10.5835 13.2804 10.3584 13.0554L7.70741 10.0254L5.05641 13.0544C4.94531 13.1673 4.81296 13.2571 4.66698 13.3187C4.52101 13.3802 4.36429 13.4122 4.20589 13.4128C4.04748 13.4135 3.89051 13.3827 3.74404 13.3224C3.59756 13.2621 3.46448 13.1734 3.35247 13.0613C3.24046 12.9493 3.15173 12.8163 3.09141 12.6698C3.03109 12.5233 3.00036 12.3663 3.00101 12.2079C3.00165 12.0495 3.03366 11.8928 3.09517 11.7468C3.15668 11.6009 3.24649 11.4685 3.35941 11.3574L6.11741 8.20741L3.35841 5.05541C3.24549 4.94431 3.15568 4.81196 3.09417 4.66598C3.03266 4.52001 3.00065 4.36329 3.00001 4.20489C2.99936 4.04648 3.03009 3.88951 3.09041 3.74304C3.15073 3.59656 3.23946 3.46348 3.35147 3.35147C3.46348 3.23946 3.59656 3.15073 3.74304 3.09041C3.88951 3.03009 4.04648 2.99936 4.20489 3.00001C4.36329 3.00065 4.52001 3.03266 4.66598 3.09417C4.81196 3.15568 4.94431 3.24549 5.05541 3.35841L7.70741 6.38941L10.3584 3.35841C10.4695 3.24549 10.6019 3.15568 10.7478 3.09417C10.8938 3.03266 11.0505 3.00065 11.2089 3.00001C11.3673 2.99936 11.5243 3.03009 11.6708 3.09041C11.8173 3.15073 11.9503 3.23946 12.0623 3.35147C12.1744 3.46348 12.2631 3.59656 12.3234 3.74304C12.3837 3.88951 12.4145 4.04648 12.4138 4.20489C12.4132 4.36329 12.3812 4.52001 12.3196 4.66598C12.2581 4.81196 12.1683 4.94431 12.0554 5.05541L9.29741 8.20741L12.0554 11.3574C12.167 11.4689 12.2555 11.6012 12.3159 11.7469C12.3763 11.8926 12.4074 12.0487 12.4074 12.2064C12.4074 12.3641 12.3763 12.5203 12.3159 12.6659C12.2555 12.8116 12.167 12.944 12.0554 13.0554Z" fill="white"/>
</svg>
