<svg width="35" height="35" viewBox="0 0 35 35" fill="none"
    xmlns="http://www.w3.org/2000/svg">
    <path fill-rule="evenodd" clip-rule="evenodd" d="M7.29163 16.7708C7.29163 16.3841 7.44527 16.0131 7.71876 15.7396C7.99225 15.4661 8.36319 15.3125 8.74996 15.3125H10.2083C10.5951 15.3125 10.966 15.4661 11.2395 15.7396C11.513 16.0131 11.6666 16.3841 11.6666 16.7708V18.2292C11.6666 18.6159 11.513 18.9869 11.2395 19.2604C10.966 19.5339 10.5951 19.6875 10.2083 19.6875H8.74996C8.36319 19.6875 7.99225 19.5339 7.71876 19.2604C7.44527 18.9869 7.29163 18.6159 7.29163 18.2292V16.7708ZM10.2083 16.7708V18.2292H8.74996V16.7708H10.2083ZM14.5833 15.3125C14.1965 15.3125 13.8256 15.4661 13.5521 15.7396C13.2786 16.0131 13.125 16.3841 13.125 16.7708V18.2292C13.125 18.6159 13.2786 18.9869 13.5521 19.2604C13.8256 19.5339 14.1965 19.6875 14.5833 19.6875H16.0416C16.4284 19.6875 16.7993 19.5339 17.0728 19.2604C17.3463 18.9869 17.5 18.6159 17.5 18.2292V16.7708C17.5 16.3841 17.3463 16.0131 17.0728 15.7396C16.7993 15.4661 16.4284 15.3125 16.0416 15.3125H14.5833ZM16.0416 16.7708H14.5833V18.2292H16.0416V16.7708ZM18.9583 16.7708C18.9583 16.3841 19.1119 16.0131 19.3854 15.7396C19.6589 15.4661 20.0299 15.3125 20.4166 15.3125H21.875C22.2617 15.3125 22.6327 15.4661 22.9062 15.7396C23.1796 16.0131 23.3333 16.3841 23.3333 16.7708V18.2292C23.3333 18.6159 23.1796 18.9869 22.9062 19.2604C22.6327 19.5339 22.2617 19.6875 21.875 19.6875H20.4166C20.0299 19.6875 19.6589 19.5339 19.3854 19.2604C19.1119 18.9869 18.9583 18.6159 18.9583 18.2292V16.7708ZM20.4166 16.7708H21.875V18.2292H20.4166V16.7708ZM8.74996 21.1458C8.36319 21.1458 7.99225 21.2995 7.71876 21.573C7.44527 21.8465 7.29163 22.2174 7.29163 22.6042V24.0625C7.29163 24.4493 7.44527 24.8202 7.71876 25.0937C7.99225 25.3672 8.36319 25.5208 8.74996 25.5208H10.2083C10.5951 25.5208 10.966 25.3672 11.2395 25.0937C11.513 24.8202 11.6666 24.4493 11.6666 24.0625V22.6042C11.6666 22.2174 11.513 21.8465 11.2395 21.573C10.966 21.2995 10.5951 21.1458 10.2083 21.1458H8.74996ZM8.74996 22.6042V24.0625H10.2083V22.6042H8.74996ZM13.125 22.6042C13.125 22.2174 13.2786 21.8465 13.5521 21.573C13.8256 21.2995 14.1965 21.1458 14.5833 21.1458H16.0416C16.4284 21.1458 16.7993 21.2995 17.0728 21.573C17.3463 21.8465 17.5 22.2174 17.5 22.6042V24.0625C17.5 24.4493 17.3463 24.8202 17.0728 25.0937C16.7993 25.3672 16.4284 25.5208 16.0416 25.5208H14.5833C14.1965 25.5208 13.8256 25.3672 13.5521 25.0937C13.2786 24.8202 13.125 24.4493 13.125 24.0625V22.6042ZM14.5833 22.6042H16.0416V24.0625H14.5833V22.6042Z" fill="white"/>
    <path d="M25.5208 22.9688C25.7142 22.9688 25.8996 23.0456 26.0364 23.1823C26.1731 23.3191 26.25 23.5045 26.25 23.6979V25.219L26.7655 25.7345C26.8983 25.872 26.9718 26.0562 26.9701 26.2474C26.9685 26.4386 26.8918 26.6214 26.7566 26.7566C26.6214 26.8918 26.4385 26.9685 26.2473 26.9702C26.0562 26.9718 25.872 26.8983 25.7344 26.7655L24.7916 25.8227V23.6979C24.7916 23.5045 24.8684 23.3191 25.0052 23.1823C25.1419 23.0456 25.3274 22.9688 25.5208 22.9688Z" fill="white"/>
    <path fill-rule="evenodd" clip-rule="evenodd" d="M8.75 5.10417C8.75 4.91078 8.82682 4.72531 8.96357 4.58857C9.10031 4.45182 9.28578 4.375 9.47917 4.375C9.67255 4.375 9.85802 4.45182 9.99477 4.58857C10.1315 4.72531 10.2083 4.91078 10.2083 5.10417V8.75C10.2083 8.94339 10.1315 9.12885 9.99477 9.2656C9.85802 9.40234 9.67255 9.47917 9.47917 9.47917C9.28578 9.47917 9.10031 9.40234 8.96357 9.2656C8.82682 9.12885 8.75 8.94339 8.75 8.75V8.02083H6.5625C6.36911 8.02083 6.18365 8.09766 6.0469 8.2344C5.91016 8.37115 5.83333 8.55661 5.83333 8.75V11.6667H24.7917V8.75C24.7917 8.55661 24.7148 8.37115 24.5781 8.2344C24.4414 8.09766 24.2559 8.02083 24.0625 8.02083H21.875V6.5625H24.0625C24.6427 6.5625 25.1991 6.79297 25.6093 7.2032C26.0195 7.61344 26.25 8.16984 26.25 8.75V20.4677C27.5272 20.6523 28.687 21.3137 29.4963 22.3189C30.3055 23.3241 30.7039 24.5985 30.6115 25.8856C30.5191 27.1728 29.9427 28.3771 28.9982 29.2564C28.0537 30.1357 26.8113 30.6247 25.5208 30.625C24.6979 30.6255 23.887 30.4269 23.1575 30.0459C22.4281 29.665 21.8016 29.1131 21.3318 28.4375H6.5625C5.98234 28.4375 5.42594 28.207 5.0157 27.7968C4.60547 27.3866 4.375 26.8302 4.375 26.25V8.75C4.375 8.16984 4.60547 7.61344 5.0157 7.2032C5.42594 6.79297 5.98234 6.5625 6.5625 6.5625H8.75V5.10417ZM20.4167 25.5208C20.4165 24.2933 20.8587 23.1068 21.6622 22.1787C22.4657 21.2507 23.5767 20.6432 24.7917 20.4677V13.125H5.83333V26.25C5.83333 26.4434 5.91016 26.6289 6.0469 26.7656C6.18365 26.9023 6.36911 26.9792 6.5625 26.9792H20.6281C20.4875 26.5058 20.4163 26.0146 20.4167 25.5208ZM25.5208 29.1667C26.4878 29.1667 27.4151 28.7826 28.0988 28.0988C28.7826 27.4151 29.1667 26.4878 29.1667 25.5208C29.1667 24.5539 28.7826 23.6266 28.0988 22.9428C27.4151 22.2591 26.4878 21.875 25.5208 21.875C24.5539 21.875 23.6266 22.2591 22.9428 22.9428C22.2591 23.6266 21.875 24.5539 21.875 25.5208C21.875 26.4878 22.2591 27.4151 22.9428 28.0988C23.6266 28.7826 24.5539 29.1667 25.5208 29.1667Z" fill="white"/>
    <path d="M19.6875 9.47917C19.4941 9.47917 19.3086 9.40234 19.1719 9.2656C19.0351 9.12885 18.9583 8.94339 18.9583 8.75V8.02083H11.6666V6.5625H18.9583V5.10417C18.9583 4.91078 19.0351 4.72531 19.1719 4.58857C19.3086 4.45182 19.4941 4.375 19.6875 4.375C19.8808 4.375 20.0663 4.45182 20.2031 4.58857C20.3398 4.72531 20.4166 4.91078 20.4166 5.10417V8.75C20.4166 8.94339 20.3398 9.12885 20.2031 9.2656C20.0663 9.40234 19.8808 9.47917 19.6875 9.47917Z" fill="white"/>
</svg>
