<svg width="24" height="24" viewBox="0 0 24 24" fill="none"
    xmlns="http://www.w3.org/2000/svg">
    <g clip-path="url(#clip0_1_3219)">
        <g opacity="0.87">
            <path d="M9.3125 16.3875C8.69129 16.3875 8.16146 16.1725 7.723 15.7424C7.28383 15.3116 7.06425 14.7919 7.06425 14.1832C7.06425 13.5745 7.28383 13.0548 7.723 12.624C8.16217 12.1932 8.692 11.9778 9.3125 11.9778C9.933 11.9778 10.4628 12.1932 10.902 12.624C11.3412 13.0548 11.5608 13.5745 11.5608 14.1832C11.5608 14.7919 11.3412 15.3116 10.902 15.7424C10.4628 16.1732 9.933 16.3886 9.3125 16.3886M5.71594 22C5.22719 22 4.81919 21.8395 4.49194 21.5185C4.16398 21.1968 4 20.7962 4 20.3168V7.00741C4 6.52798 4.16398 6.12776 4.49194 5.80675C4.81919 5.48504 5.22719 5.32419 5.71594 5.32419H7.59656V3H8.74087V5.32419H16.3409V3H17.4034V5.32419H19.2841C19.7728 5.32419 20.1808 5.48504 20.5081 5.80675C20.836 6.12776 21 6.52798 21 7.00741V20.3168C21 20.7962 20.8364 21.1964 20.5091 21.5174C20.1812 21.8391 19.7728 22 19.2841 22H5.71594ZM5.71594 20.9578H19.2841C19.447 20.9578 19.5968 20.8911 19.7335 20.7577C19.8695 20.6236 19.9375 20.4766 19.9375 20.3168V11.1764H5.0625V20.3168C5.0625 20.4766 5.1305 20.6236 5.2665 20.7577C5.40321 20.8911 5.55302 20.9578 5.71594 20.9578ZM5.0625 10.1341H19.9375V7.00741C19.9375 6.8476 19.8695 6.70064 19.7335 6.56654C19.5968 6.43313 19.447 6.36643 19.2841 6.36643H5.71594C5.55302 6.36643 5.40321 6.43313 5.2665 6.56654C5.1305 6.70064 5.0625 6.8476 5.0625 7.00741V10.1341Z" fill="#007C16"/>
        </g>
    </g>
    <defs>
        <clipPath id="clip0_1_3219">
            <rect width="24" height="24" fill="white"/>
        </clipPath>
    </defs>
</svg>
