<svg width="21" height="21" viewBox="0 0 21 21" fill="none"
    xmlns="http://www.w3.org/2000/svg">
    <path d="M7.125 6.125H6.25C5.78587 6.125 5.34075 6.30937 5.01256 6.63756C4.68437 6.96575 4.5 7.41087 4.5 7.875V15.75C4.5 16.2141 4.68437 16.6592 5.01256 16.9874C5.34075 17.3156 5.78587 17.5 6.25 17.5H14.125C14.5891 17.5 15.0342 17.3156 15.3624 16.9874C15.6906 16.6592 15.875 16.2141 15.875 15.75V14.875" stroke="#007C16" stroke-width="2" stroke-linecap="round" stroke-linejoin="round"/>
    <path d="M15 4.37509L17.625 7.00009M18.8369 5.76197C19.1815 5.41735 19.3751 4.94995 19.3751 4.46259C19.3751 3.97523 19.1815 3.50783 18.8369 3.16322C18.4923 2.8186 18.0249 2.625 17.5375 2.625C17.0501 2.625 16.5827 2.8186 16.2381 3.16322L8.875 10.5001V13.1251H11.5L18.8369 5.76197Z" stroke="#007C16" stroke-width="2" stroke-linecap="round" stroke-linejoin="round"/>
</svg>
