<svg width="32" height="32" viewBox="0 0 32 32" fill="none"
    xmlns="http://www.w3.org/2000/svg">
    <path fill-rule="evenodd" clip-rule="evenodd" d="M16.0666 1.6665H15.9333C15.048 1.6665 14.284 1.6665 13.672 1.74917C13.0173 1.83717 12.388 2.03584 11.8786 2.54517C11.3693 3.0545 11.1706 3.68384 11.0826 4.3385C11 4.9505 11 5.7145 11 6.60117V9.83717C10.6788 9.72382 10.3406 9.66611 9.99996 9.6665H5.99996C5.60599 9.6665 5.21589 9.7441 4.85191 9.89486C4.48793 10.0456 4.15721 10.2666 3.87864 10.5452C3.60006 10.8238 3.37908 11.1545 3.22832 11.5185C3.07756 11.8824 2.99996 12.2725 2.99996 12.6665V28.3332H2.66663C2.40141 28.3332 2.14706 28.4385 1.95952 28.6261C1.77198 28.8136 1.66663 29.068 1.66663 29.3332C1.66663 29.5984 1.77198 29.8527 1.95952 30.0403C2.14706 30.2278 2.40141 30.3332 2.66663 30.3332H29.3333C29.5985 30.3332 29.8529 30.2278 30.0404 30.0403C30.2279 29.8527 30.3333 29.5984 30.3333 29.3332C30.3333 29.068 30.2279 28.8136 30.0404 28.6261C29.8529 28.4385 29.5985 28.3332 29.3333 28.3332H29V19.3332C29 18.5375 28.6839 17.7745 28.1213 17.2118C27.5587 16.6492 26.7956 16.3332 26 16.3332H22C21.6493 16.3332 21.3133 16.3932 21 16.5038V6.60117C21 5.7145 21 4.9505 20.9173 4.3385C20.8293 3.68384 20.6306 3.0545 20.1213 2.54517C19.612 2.03584 18.984 1.83717 18.328 1.74917C17.716 1.6665 16.952 1.6665 16.0653 1.6665M26.9986 28.3332V19.3332C26.9986 19.068 26.8933 18.8136 26.7057 18.6261C26.5182 18.4385 26.2638 18.3332 25.9986 18.3332H21.9986C21.7334 18.3332 21.4791 18.4385 21.2915 18.6261C21.104 18.8136 20.9986 19.068 20.9986 19.3332V28.3332H26.9986ZM18.9986 28.3332V6.6665C18.9986 5.69584 18.996 5.0665 18.9346 4.60517C18.876 4.17184 18.7813 4.03584 18.7053 3.95984C18.6293 3.88384 18.4933 3.78917 18.06 3.7305C17.5973 3.66917 16.9693 3.6665 15.9986 3.6665C15.028 3.6665 14.3986 3.66917 13.9373 3.7305C13.504 3.78917 13.368 3.88384 13.292 3.95984C13.216 4.03584 13.1213 4.17184 13.0626 4.60517C13.0013 5.06784 12.9986 5.69584 12.9986 6.6665V28.3332H18.9986ZM10.9986 28.3332V12.6665C10.9986 12.4013 10.8933 12.1469 10.7057 11.9594C10.5182 11.7719 10.2638 11.6665 9.99863 11.6665H5.99863C5.73341 11.6665 5.47906 11.7719 5.29152 11.9594C5.10398 12.1469 4.99863 12.4013 4.99863 12.6665V28.3332H10.9986Z" fill="white"/>
</svg>
