<svg width="32" height="32" viewBox="0 0 32 32" fill="none"
    xmlns="http://www.w3.org/2000/svg">
    <path d="M16.666 30.6665C16.1105 30.6665 15.6385 30.4776 15.25 30.0998C14.8616 29.7221 14.6669 29.2554 14.666 28.6998C14.666 28.4332 14.7162 28.1776 14.8167 27.9332C14.9171 27.6887 15.0669 27.4776 15.266 27.2998L16.666 25.9998L18.066 27.2998C18.266 27.4776 18.4162 27.6887 18.5167 27.9332C18.6171 28.1776 18.6669 28.4332 18.666 28.6998C18.666 29.2554 18.4718 29.7221 18.0833 30.0998C17.6949 30.4776 17.2225 30.6665 16.666 30.6665ZM12.066 28.6665L10.666 27.2665L14.5993 23.3332L15.9993 24.7332L12.066 28.6665ZM20.666 26.6665L18.666 24.6665L20.666 22.6665L22.666 24.6665L20.666 26.6665ZM8.66602 26.6665L6.66602 24.6665L8.66602 22.6665L10.666 24.6665L8.66602 26.6665ZM9.99935 21.3332C7.97713 21.3332 6.24957 20.6167 4.81668 19.1838C3.38379 17.7509 2.6669 16.023 2.66602 13.9998C2.66602 12.1554 3.27713 10.5443 4.49935 9.16651C5.72157 7.78873 7.23268 6.97762 9.03268 6.73317C9.74379 5.46651 10.7162 4.47184 11.95 3.74917C13.1838 3.02651 14.5336 2.66562 15.9993 2.66651C17.9993 2.66651 19.7385 3.30562 21.2167 4.58384C22.6949 5.86206 23.5891 7.45628 23.8993 9.36651C25.4327 9.49984 26.7216 10.1332 27.766 11.2665C28.8105 12.3998 29.3327 13.7554 29.3327 15.3332C29.3327 16.9998 28.7496 18.4167 27.5833 19.5838C26.4171 20.7509 25.0002 21.3341 23.3327 21.3332H9.99935ZM9.99935 18.6665H23.3327C24.266 18.6665 25.0549 18.3443 25.6993 17.6998C26.3438 17.0554 26.666 16.2665 26.666 15.3332C26.666 14.3998 26.3438 13.611 25.6993 12.9665C25.0549 12.3221 24.266 11.9998 23.3327 11.9998H21.3327V10.6665C21.3327 9.19984 20.8105 7.94428 19.766 6.89984C18.7216 5.85539 17.466 5.33317 15.9993 5.33317C14.9327 5.33317 13.9607 5.62206 13.0833 6.19984C12.206 6.77762 11.5447 7.5554 11.0993 8.53317L10.766 9.33317H9.93268C8.66602 9.37762 7.5829 9.85006 6.68335 10.7505C5.78379 11.651 5.33357 12.7341 5.33268 13.9998C5.33268 15.2887 5.78824 16.3887 6.69935 17.2998C7.61046 18.211 8.71046 18.6665 9.99935 18.6665Z" fill="white"/>
</svg>
