<svg width="32" height="32" viewBox="0 0 32 32" fill="none"
    xmlns="http://www.w3.org/2000/svg">
    <path d="M15.9999 4.00007C13.6266 4.00007 11.3065 4.70386 9.3331 6.02243C7.35971 7.34101 5.82164 9.21515 4.91339 11.4079C4.00514 13.6006 3.7675 16.0134 4.23052 18.3412C4.69354 20.6689 5.83643 22.8071 7.51466 24.4853C9.19289 26.1636 11.3311 27.3065 13.6589 27.7695C15.9866 28.2325 18.3994 27.9949 20.5921 27.0866C22.7849 26.1784 24.659 24.6403 25.9776 22.6669C27.2962 20.6935 27.9999 18.3734 27.9999 16.0001C27.9963 12.8186 26.7309 9.76845 24.4812 7.51881C22.2316 5.26916 19.1814 4.00371 15.9999 4.00007ZM15.9999 26.0001C14.0221 26.0001 12.0887 25.4136 10.4442 24.3148C8.79975 23.216 7.51803 21.6542 6.76115 19.8269C6.00427 17.9996 5.80624 15.989 6.19209 14.0492C6.57795 12.1094 7.53035 10.3275 8.92888 8.929C10.3274 7.53047 12.1092 6.57807 14.049 6.19221C15.9889 5.80636 17.9995 6.0044 19.8268 6.76127C21.654 7.51815 23.2158 8.79987 24.3146 10.4444C25.4135 12.0889 25.9999 14.0223 25.9999 16.0001C25.997 18.6513 24.9424 21.1931 23.0677 23.0678C21.193 24.9426 18.6512 25.9971 15.9999 26.0001ZM7.70745 3.70757L3.70745 7.70757C3.51981 7.89521 3.26531 8.00062 2.99995 8.00062C2.73458 8.00062 2.48009 7.89521 2.29245 7.70757C2.10481 7.51993 1.99939 7.26543 1.99939 7.00007C1.99939 6.7347 2.10481 6.48021 2.29245 6.29257L6.29245 2.29257C6.38536 2.19966 6.49566 2.12596 6.61705 2.07567C6.73844 2.02539 6.86855 1.99951 6.99995 1.99951C7.13134 1.99951 7.26145 2.02539 7.38284 2.07567C7.50424 2.12596 7.61454 2.19966 7.70745 2.29257C7.80036 2.38548 7.87406 2.49578 7.92434 2.61717C7.97462 2.73856 8.0005 2.86867 8.0005 3.00007C8.0005 3.13146 7.97462 3.26157 7.92434 3.38296C7.87406 3.50436 7.80036 3.61466 7.70745 3.70757ZM29.7074 7.70757C29.6146 7.80054 29.5043 7.8743 29.3829 7.92463C29.2615 7.97495 29.1314 8.00085 28.9999 8.00085C28.8685 8.00085 28.7384 7.97495 28.617 7.92463C28.4956 7.8743 28.3853 7.80054 28.2924 7.70757L24.2924 3.70757C24.1048 3.51993 23.9994 3.26543 23.9994 3.00007C23.9994 2.7347 24.1048 2.48021 24.2924 2.29257C24.4801 2.10493 24.7346 1.99951 24.9999 1.99951C25.2653 1.99951 25.5198 2.10493 25.7074 2.29257L29.7074 6.29257C29.8004 6.38544 29.8742 6.49573 29.9245 6.61713C29.9748 6.73853 30.0007 6.86865 30.0007 7.00007C30.0007 7.13148 29.9748 7.26161 29.9245 7.38301C29.8742 7.50441 29.8004 7.61469 29.7074 7.70757ZM22.9999 15.0001C23.2652 15.0001 23.5195 15.1054 23.7071 15.293C23.8946 15.4805 23.9999 15.7349 23.9999 16.0001C23.9999 16.2653 23.8946 16.5196 23.7071 16.7072C23.5195 16.8947 23.2652 17.0001 22.9999 17.0001H15.9999C15.7347 17.0001 15.4804 16.8947 15.2928 16.7072C15.1053 16.5196 14.9999 16.2653 14.9999 16.0001V9.00007C14.9999 8.73485 15.1053 8.4805 15.2928 8.29296C15.4804 8.10542 15.7347 8.00007 15.9999 8.00007C16.2652 8.00007 16.5195 8.10542 16.7071 8.29296C16.8946 8.4805 16.9999 8.73485 16.9999 9.00007V15.0001H22.9999Z" fill="white"/>
</svg>
