<svg width="49" height="49" viewBox="0 0 49 49" fill="none"
    xmlns="http://www.w3.org/2000/svg">
    <rect x="0.5" y="0.5" width="48" height="48" rx="3.5" fill="white" stroke="#007C16"/>
    <g clip-path="url(#clip0_1_1476)">
        <path fill-rule="evenodd" clip-rule="evenodd" d="M15.3125 12.1139C14.5003 12.1139 13.7213 12.415 13.147 12.9511C12.5727 13.4871 12.25 14.2142 12.25 14.9722V19.7361H10.2083V14.9722C10.2083 13.7088 10.7461 12.4971 11.7033 11.6037C12.6605 10.7103 13.9588 10.2083 15.3125 10.2083H20.4167V12.1139H15.3125ZM35.7292 12.1139H30.625V10.2083H35.7292C37.0829 10.2083 38.3812 10.7103 39.3384 11.6037C40.2956 12.4971 40.8333 13.7088 40.8333 14.9722V19.7361H38.7917V14.9722C38.7917 14.2142 38.469 13.4871 37.8947 12.9511C37.3204 12.415 36.5414 12.1139 35.7292 12.1139ZM20.4167 21.6417H18.375V19.7361H20.4167V21.6417ZM32.6667 21.6417H30.625V19.7361H32.6667V21.6417ZM20.2125 26.7867C20.8306 27.5558 21.632 28.1801 22.5534 28.6101C23.4748 29.0401 24.4907 29.2639 25.5208 29.2639C26.551 29.2639 27.5669 29.0401 28.4883 28.6101C29.4097 28.1801 30.2111 27.5558 30.8292 26.7867L32.4625 27.93C28.9917 32.2499 22.05 32.2499 18.5792 27.93L20.2125 26.7867ZM10.2083 34.0278V29.2639H12.25V34.0278C12.25 34.7859 12.5727 35.5129 13.147 36.0489C13.7213 36.585 14.5003 36.8861 15.3125 36.8861H20.4167V38.7917H15.3125C13.9588 38.7917 12.6605 38.2898 11.7033 37.3964C10.7461 36.503 10.2083 35.2913 10.2083 34.0278ZM40.8333 29.2639V34.0278C40.8333 35.2913 40.2956 36.503 39.3384 37.3964C38.3812 38.2898 37.0829 38.7917 35.7292 38.7917H30.625V36.8861H35.7292C36.5414 36.8861 37.3204 36.585 37.8947 36.0489C38.469 35.5129 38.7917 34.7859 38.7917 34.0278V29.2639H40.8333Z" fill="#007C16"/>
    </g>
    <defs>
        <clipPath id="clip0_1_1476">
            <rect width="33.6875" height="29.4" fill="white" transform="translate(10.2083 9.80011)"/>
        </clipPath>
    </defs>
</svg>
