<svg width="25" height="24" viewBox="0 0 25 24" fill="none"
    xmlns="http://www.w3.org/2000/svg">
    <path d="M12.1623 2.28937C6.84149 2.28937 2.51257 6.61828 2.51257 11.9391C2.51257 17.2599 6.84149 21.5888 12.1623 21.5888C17.4831 21.5888 21.812 17.2599 21.812 11.9391C21.812 6.61828 17.4831 2.28937 12.1623 2.28937ZM13.6469 16.3928H10.6777C10.4808 16.3928 10.292 16.3146 10.1528 16.1754C10.0136 16.0362 9.93543 15.8474 9.93543 15.6505C9.93543 15.4536 10.0136 15.2648 10.1528 15.1256C10.292 14.9864 10.4808 14.9082 10.6777 14.9082H13.6469C13.8437 14.9082 14.0325 14.9864 14.1717 15.1256C14.3109 15.2648 14.3891 15.4536 14.3891 15.6505C14.3891 15.8474 14.3109 16.0362 14.1717 16.1754C14.0325 16.3146 13.8437 16.3928 13.6469 16.3928ZM15.8737 13.4236H8.45086C8.25399 13.4236 8.06519 13.3454 7.92598 13.2062C7.78678 13.067 7.70857 12.8782 7.70857 12.6814C7.70857 12.4845 7.78678 12.2957 7.92598 12.1565C8.06519 12.0173 8.25399 11.9391 8.45086 11.9391H15.8737C16.0706 11.9391 16.2594 12.0173 16.3986 12.1565C16.5378 12.2957 16.616 12.4845 16.616 12.6814C16.616 12.8782 16.5378 13.067 16.3986 13.2062C16.2594 13.3454 16.0706 13.4236 15.8737 13.4236ZM17.3583 10.4545H6.96629C6.76942 10.4545 6.58062 10.3763 6.44141 10.2371C6.30221 10.0979 6.224 9.90909 6.224 9.71222C6.224 9.51536 6.30221 9.32655 6.44141 9.18735C6.58062 9.04814 6.76942 8.96994 6.96629 8.96994H17.3583C17.5551 8.96994 17.744 9.04814 17.8832 9.18735C18.0224 9.32655 18.1006 9.51536 18.1006 9.71222C18.1006 9.90909 18.0224 10.0979 17.8832 10.2371C17.744 10.3763 17.5551 10.4545 17.3583 10.4545Z" fill="#007C16"/>
</svg>
