<svg width="49" height="49" viewBox="0 0 49 49" fill="none"
    xmlns="http://www.w3.org/2000/svg">
    <rect x="0.5" y="0.5" width="48" height="48" rx="4.5" fill="#007C16" stroke="#007C16"/>
    <rect x="4" y="7" width="41.2903" height="34.9091" rx="5" fill="#007C16"/>
    <path d="M34.6408 13.5018C34.5032 13.5018 34.3656 13.4727 34.2452 13.4145C30.9419 11.9745 28.086 11.3636 24.6624 11.3636C21.2559 11.3636 18.0215 12.0473 15.0796 13.4145C14.6667 13.6036 14.1505 13.4727 13.9097 13.1236C13.8024 12.9535 13.7783 12.7546 13.8426 12.5696C13.907 12.3847 14.0546 12.2285 14.2538 12.1345C17.4538 10.6655 20.9634 9.90909 24.6624 9.90909C28.3269 9.90909 31.5269 10.5927 35.0366 12.12C35.4667 12.3091 35.6215 12.7455 35.3978 13.0945C35.3298 13.2158 35.2227 13.3183 35.0888 13.3904C34.9548 13.4624 34.7996 13.5011 34.6408 13.5018ZM10.0215 21.1382C9.86291 21.1394 9.70701 21.1035 9.5711 21.0344C9.43518 20.9653 9.32456 20.8657 9.25151 20.7467C9.17845 20.6277 9.14582 20.4939 9.15722 20.3602C9.16863 20.2265 9.22363 20.098 9.31612 19.9891C11.0193 17.9527 13.1871 16.3527 15.7677 15.2327C21.1699 12.8764 28.086 12.8618 33.5054 15.2182C36.086 16.3382 38.2538 17.9236 39.957 19.9455C40.023 20.0236 40.07 20.1121 40.0954 20.2057C40.1207 20.2993 40.1239 20.3963 40.1047 20.4909C40.0855 20.5856 40.0443 20.6761 39.9836 20.7572C39.9228 20.8384 39.8436 20.9085 39.7505 20.9636C39.3548 21.1964 38.8215 21.1236 38.5462 20.7891C37.0396 18.986 35.0383 17.5186 32.714 16.5127C27.7763 14.3745 21.4624 14.3745 16.5419 16.5273C14.2021 17.5455 12.2409 19 10.6925 20.8327C10.5548 21.0364 10.2968 21.1382 10.0215 21.1382ZM20.7742 38.6945C20.6614 38.6957 20.5495 38.6769 20.4458 38.6393C20.3421 38.6017 20.2488 38.5462 20.172 38.4764C18.6753 37.2109 17.8667 36.3964 16.714 34.6364C15.5269 32.8473 14.9075 30.6655 14.9075 28.3236C14.9075 24.0036 19.2774 20.4836 24.6452 20.4836C30.0129 20.4836 34.3828 24.0036 34.3828 28.3236C34.3828 28.7309 34.0043 29.0509 33.5226 29.0509C33.0408 29.0509 32.6624 28.7309 32.6624 28.3236C32.6624 24.8036 29.0667 21.9382 24.6452 21.9382C20.2236 21.9382 16.6279 24.8036 16.6279 28.3236C16.6279 30.4182 17.1785 32.3527 18.2279 33.9236C19.329 35.5964 20.086 36.3091 21.4107 37.4436C21.7376 37.7345 21.7376 38.1854 21.4107 38.4764C21.2215 38.6218 20.9978 38.6945 20.7742 38.6945ZM33.1097 36.0036C31.0624 36.0036 29.2559 35.5673 27.7763 34.7091C25.2129 33.24 23.6817 30.8545 23.6817 28.3236C23.6817 27.9164 24.0602 27.5964 24.5419 27.5964C25.0236 27.5964 25.4021 27.9164 25.4021 28.3236C25.4021 30.3745 26.6409 32.3091 28.7398 33.5018C29.9613 34.2 31.3892 34.5345 33.1097 34.5345C33.5226 34.5345 34.2107 34.4909 34.8989 34.3891C35.3634 34.3164 35.8107 34.5782 35.8968 34.9855C35.9828 35.3782 35.6731 35.7564 35.1914 35.8291C34.2107 35.9891 33.3505 36.0036 33.1097 36.0036ZM29.6516 39C29.5828 39 29.4968 38.9854 29.4279 38.9709C26.6925 38.3309 24.9032 37.4727 23.0279 35.9164C21.8396 34.9243 20.8973 33.7418 20.2563 32.4381C19.6152 31.1343 19.2883 29.7355 19.2946 28.3236C19.2946 25.9673 21.6688 24.0473 24.5935 24.0473C27.5183 24.0473 29.8925 25.9673 29.8925 28.3236C29.8925 29.88 31.4925 31.1455 33.471 31.1455C35.4494 31.1455 37.0495 29.88 37.0495 28.3236C37.0495 22.84 31.4581 18.3891 24.5763 18.3891C19.6903 18.3891 15.2172 20.6873 13.2043 24.2509C12.5333 25.4291 12.1892 26.8109 12.1892 28.3236C12.1892 29.4582 12.3097 31.2473 13.3419 33.5745C13.514 33.9527 13.2903 34.3745 12.843 34.5055C12.3957 34.6509 11.8968 34.4473 11.7419 34.0836C10.9129 32.2441 10.4873 30.2922 10.486 28.3236C10.486 26.5782 10.8817 24.9927 11.6559 23.6109C13.9441 19.5527 19.0193 16.92 24.5763 16.92C32.4043 16.92 38.7699 22.0255 38.7699 28.3091C38.7699 30.6655 36.3957 32.5855 33.471 32.5855C30.5462 32.5855 28.172 30.6655 28.172 28.3091C28.172 26.7527 26.572 25.4873 24.5935 25.4873C22.615 25.4873 21.015 26.7527 21.015 28.3091C21.015 30.7964 22.1505 33.1236 24.2322 34.8691C25.8667 36.2364 27.4322 36.9927 29.8581 37.56C30.3226 37.6618 30.5806 38.0691 30.4602 38.4473C30.3742 38.7818 30.0129 39 29.6516 39Z" fill="white"/>
</svg>
