<svg width="18" height="20" viewBox="0 0 18 20" fill="none"
    xmlns="http://www.w3.org/2000/svg">
    <path opacity="0.87" d="M3.5 5.99995C3.5002 5.05187 3.74548 4.11993 4.21202 3.29458C4.67857 2.46923 5.35055 1.7785 6.16274 1.28942C6.97494 0.800332 7.89977 0.529504 8.84749 0.503214C9.79521 0.476924 10.7336 0.696065 11.5717 1.13937C12.4098 1.58268 13.119 2.23509 13.6306 3.03331C14.1422 3.83152 14.4387 4.74843 14.4915 5.69505C14.5442 6.64166 14.3514 7.58584 13.9317 8.43596C13.512 9.28608 12.8796 10.0133 12.096 10.547C13.7835 11.1659 15.2472 12.2757 16.2986 13.7335C17.3501 15.1913 17.9413 16.9304 17.996 18.727C17.9937 18.9207 17.9166 19.106 17.7808 19.2442C17.6451 19.3824 17.4612 19.4628 17.2676 19.4686C17.0739 19.4744 16.8856 19.4052 16.7418 19.2753C16.598 19.1455 16.5099 18.9652 16.496 18.772C16.4365 16.8234 15.6205 14.9746 14.2212 13.6174C12.8218 12.2601 10.949 11.5011 8.9995 11.5011C7.05005 11.5011 5.1772 12.2601 3.77783 13.6174C2.37846 14.9746 1.56255 16.8234 1.503 18.772C1.49299 18.9678 1.40668 19.1519 1.26256 19.2849C1.11845 19.4178 0.927982 19.4891 0.731977 19.4833C0.535973 19.4776 0.350016 19.3953 0.213945 19.2541C0.0778746 19.1129 0.00251264 18.924 0.00400427 18.728C0.0585556 16.9312 0.649611 15.1919 1.70109 13.7339C2.75257 12.2759 4.21635 11.166 5.904 10.547C5.16284 10.0426 4.5563 9.36457 4.13728 8.57202C3.71825 7.77947 3.49947 6.89645 3.5 5.99995ZM9 1.99995C7.93914 1.99995 6.92172 2.42138 6.17158 3.17153C5.42143 3.92167 5 4.93909 5 5.99995C5 7.06082 5.42143 8.07823 6.17158 8.82838C6.92172 9.57853 7.93914 9.99995 9 9.99995C10.0609 9.99995 11.0783 9.57853 11.8284 8.82838C12.5786 8.07823 13 7.06082 13 5.99995C13 4.93909 12.5786 3.92167 11.8284 3.17153C11.0783 2.42138 10.0609 1.99995 9 1.99995Z" fill="#007C16"/>
</svg>
