<svg width="16" height="13" viewBox="0 0 16 13" fill="none"
    xmlns="http://www.w3.org/2000/svg">
    <path d="M1 8.96875L4.65429 5.31446C4.80229 5.16646 4.97798 5.04907 5.17134 4.96897C5.36471 4.88888 5.57195 4.84765 5.78125 4.84765C5.99055 4.84765 6.19779 4.88888 6.39116 4.96897C6.58452 5.04907 6.76021 5.16646 6.90821 5.31446L10.5625 8.96875M9.5 7.90625L10.498 6.90821C10.646 6.76021 10.8217 6.64282 11.0151 6.56272C11.2085 6.48263 11.4157 6.4414 11.625 6.4414C11.8343 6.4414 12.0415 6.48263 12.2349 6.56272C12.4283 6.64282 12.604 6.76021 12.752 6.90821L14.8125 8.96875M2.0625 11.625H13.75C14.0318 11.625 14.302 11.5131 14.5013 11.3138C14.7006 11.1145 14.8125 10.8443 14.8125 10.5625V2.0625C14.8125 1.78071 14.7006 1.51046 14.5013 1.3112C14.302 1.11194 14.0318 1 13.75 1H2.0625C1.78071 1 1.51046 1.11194 1.3112 1.3112C1.11194 1.51046 1 1.78071 1 2.0625V10.5625C1 10.8443 1.11194 11.1145 1.3112 11.3138C1.51046 11.5131 1.78071 11.625 2.0625 11.625ZM9.5 3.65625H9.50567V3.66192H9.5V3.65625ZM9.76562 3.65625C9.76562 3.7267 9.73764 3.79426 9.68783 3.84408C9.63801 3.89389 9.57045 3.92188 9.5 3.92188C9.42955 3.92188 9.36199 3.89389 9.31217 3.84408C9.26236 3.79426 9.23438 3.7267 9.23438 3.65625C9.23438 3.5858 9.26236 3.51824 9.31217 3.46842C9.36199 3.41861 9.42955 3.39062 9.5 3.39062C9.57045 3.39062 9.63801 3.41861 9.68783 3.46842C9.73764 3.51824 9.76562 3.5858 9.76562 3.65625Z" stroke="#007C16" stroke-linecap="round" stroke-linejoin="round"/>
</svg>
