<svg width="144" height="59" viewBox="0 0 144 59" fill="none"
    xmlns="http://www.w3.org/2000/svg">
    <g clip-path="url(#clip0_1_3157)">
        <path d="M59.8404 24.6198C59.107 22.8344 57.8183 21.3281 56.1621 20.3204C53.9783 19.1293 51.5081 18.5529 49.0184 18.6534H41.145V38.7701H47.164V24.4388H49.2008C50.9639 24.4388 52.2407 24.7556 53.0538 25.4118C53.5054 25.7947 53.8602 26.2773 54.0899 26.8209C54.3195 27.3646 54.4176 27.954 54.3762 28.5421C54.3787 29.178 54.2654 29.8092 54.0418 30.4052C53.819 31.0228 53.43 31.568 52.917 31.9816C51.7856 32.6929 50.4524 33.0211 49.1172 32.9169H48.152V38.8305C48.9728 38.8305 49.5732 38.8908 49.9531 38.8908C53.4338 38.8908 56.1545 37.7318 58.1153 35.4136C59.3382 33.9263 60.1422 32.1438 60.4452 30.2477C60.7483 28.3517 60.5396 26.4098 59.8404 24.6198Z" fill="#464747"/>
        <path d="M82.2673 23.8429C81.3912 22.0985 80.0236 20.6442 78.3306 19.6566C76.7301 18.6794 74.8898 18.1575 73.0108 18.1481C71.2657 18.1369 69.5432 18.5403 67.9873 19.3247C66.2257 20.196 64.7464 21.5414 63.7184 23.2073C62.6904 24.8731 62.1551 26.7923 62.1735 28.7457C62.1739 30.1277 62.4476 31.4962 62.9791 32.7736C63.5214 34.0531 64.3085 35.2161 65.297 36.198C66.284 37.2016 67.4673 37.9942 68.7742 38.5273C70.0811 39.0605 71.484 39.3228 72.8968 39.2981C74.2875 39.3183 75.6674 39.0534 76.9503 38.52C78.2331 37.9865 79.3912 37.1961 80.3521 36.198C81.3518 35.2339 82.1435 34.0781 82.6791 32.8009C83.2147 31.5237 83.4831 30.1517 83.468 28.7684C83.4696 27.0549 83.0579 25.3661 82.2673 23.8429ZM76.0051 31.9816C75.5975 32.4082 75.1066 32.7479 74.5624 32.9801C74.0182 33.2122 73.4321 33.332 72.8398 33.332C72.2474 33.332 71.6613 33.2122 71.1171 32.9801C70.5729 32.7479 70.0821 32.4082 69.6745 31.9816C69.244 31.5492 68.9058 31.0351 68.6799 30.4701C68.454 29.905 68.3451 29.3006 68.3597 28.6929C68.3452 28.0761 68.4592 27.4629 68.6946 26.8918C68.93 26.3207 69.2817 25.804 69.7277 25.3741C70.1378 24.9581 70.6289 24.6292 71.1711 24.4075C71.7133 24.1857 72.2952 24.0758 72.8816 24.0843C73.4504 24.0806 74.0138 24.1932 74.5368 24.4151C75.0598 24.637 75.5312 24.9634 75.9215 25.3741C76.3648 25.8071 76.7142 26.3256 76.9482 26.8977C77.1821 27.4697 77.2957 28.0832 77.2818 28.7005C77.31 29.9187 76.851 31.0984 76.0051 31.9816Z" fill="#464747"/>
        <path d="M100.355 23.4657C100.106 21.863 99.2359 20.4203 97.9303 19.4454C96.6289 18.5395 95.0656 18.0788 93.4769 18.1329C92.1859 18.1261 90.9101 18.4098 89.7454 18.9627C88.6905 19.4576 87.788 20.2232 87.1311 21.1803C86.2646 22.5293 85.8301 24.1071 85.8847 25.706V38.755H91.9189V25.9322C91.8674 25.4289 91.9907 24.9232 92.2685 24.4991C92.3893 24.3649 92.5384 24.2588 92.7052 24.1883C92.8721 24.1179 93.0525 24.085 93.2337 24.0918C94.0925 24.0918 94.5181 24.7028 94.5181 25.9322V37.5482C95.2829 36.764 96.0896 36.0212 96.9348 35.3231C97.9721 34.4654 99.0692 33.6815 100.218 32.9772L100.537 32.7887V25.9322C100.553 25.1063 100.492 24.2806 100.355 23.4657Z" fill="#464747"/>
        <path d="M123.086 23.8429C122.195 22.1083 120.817 20.6672 119.118 19.6943C117.518 18.7174 115.678 18.1956 113.799 18.1857C112.056 18.1755 110.336 18.5789 108.783 19.3624C107.028 20.2305 105.555 21.5706 104.531 23.2297C103.507 24.8888 102.974 26.8002 102.992 28.7457C102.99 29.6679 103.113 30.5862 103.357 31.4762C103.445 31.4345 103.536 31.3992 103.63 31.3706C104.709 30.9769 105.847 30.7678 106.997 30.7521H107.172C108.935 30.8879 109.687 31.6346 110.022 32.2607C110.067 32.3281 110.103 32.4018 110.128 32.4794C110.234 32.3135 110.356 32.14 110.478 31.9816C110.051 31.5512 109.716 31.0405 109.491 30.4796C109.267 29.9187 109.158 29.3189 109.17 28.7155C109.16 28.0985 109.276 27.4857 109.513 26.915C109.749 26.3443 110.101 25.8276 110.546 25.3967C110.956 24.9803 111.447 24.6512 111.989 24.4295C112.531 24.2077 113.113 24.0979 113.7 24.1069C114.268 24.1041 114.832 24.2171 115.355 24.4389C115.877 24.6608 116.349 24.9868 116.74 25.3967C117.182 25.8304 117.53 26.3492 117.762 26.9212C117.995 27.4932 118.107 28.1064 118.092 28.7231C118.119 29.9425 117.657 31.1227 116.808 32.0042C116.754 32.0611 116.695 32.114 116.633 32.1626V32.2607C116.472 33.0772 116.201 33.8687 115.828 34.614C115.44 35.4739 114.969 36.4318 114.407 37.4577C114.08 38.046 113.745 38.6494 113.373 39.283H113.707C115.097 39.304 116.476 39.0394 117.758 38.5059C119.04 37.9724 120.196 37.1815 121.155 36.1829C122.158 35.2189 122.953 34.0624 123.491 32.7839C124.03 31.5053 124.3 30.1313 124.286 28.7457C124.284 27.0399 123.873 25.3592 123.086 23.8429Z" fill="#464747"/>
        <path d="M139.813 30.4881C140.644 29.9047 141.323 29.1316 141.791 28.2338C142.259 27.336 142.503 26.3397 142.503 25.3288C142.499 24.4706 142.332 23.6208 142.009 22.8246C141.649 21.897 141.077 21.0655 140.337 20.3958C139.037 19.2417 137.213 18.6534 134.858 18.6534H127.121V38.7701H133.155V24.0616H134.212C134.729 24.0221 135.249 24.0995 135.731 24.2879C135.96 24.3973 136.15 24.5723 136.278 24.7901C136.405 25.0079 136.463 25.2586 136.446 25.5098C136.458 25.736 136.418 25.962 136.33 26.1709C136.242 26.3798 136.107 26.5663 135.937 26.7167C135.541 27.0198 135.044 27.1626 134.546 27.1164H134.067V32.2908L136.993 38.7701H143.316L139.813 30.4881Z" fill="#464747"/>
        <path d="M104.474 37.4653C104.77 37.1635 105.112 36.8166 105.492 36.4017C105.872 35.9869 106.252 35.6022 106.526 35.2175C106.787 34.8962 107.016 34.55 107.21 34.1841C107.354 33.8749 107.339 33.6712 107.141 33.5581C106.696 33.3766 106.196 33.3766 105.75 33.5581C105.01 33.7765 104.299 34.0803 103.63 34.4632C102.75 34.9636 101.902 35.5179 101.092 36.1226C100.195 36.7939 99.2983 37.5256 98.4091 38.3327C97.5199 39.1398 96.6688 39.9921 95.8632 40.8897C95.0936 41.7373 94.3778 42.6316 93.7201 43.5674C93.1397 44.3876 92.6505 45.2677 92.2609 46.1923C91.9325 46.9366 91.7643 47.7407 91.7669 48.5532C91.7406 48.7754 91.7622 49.0007 91.8303 49.214C91.8985 49.4272 92.0116 49.6237 92.1621 49.7902C92.4598 50.0356 92.8155 50.2017 93.1957 50.273C93.8425 50.368 94.5029 50.3033 95.1184 50.0844C96.0646 49.8104 96.9934 49.4804 97.8999 49.0963C98.9132 48.6739 99.9721 48.1912 101.077 47.6481C102.181 47.105 103.225 46.5644 104.208 46.0264C105.191 45.4833 106.065 44.9804 106.83 44.5178C107.59 44.0652 108.152 43.7107 108.509 43.4618C108.213 43.7258 107.749 44.0954 107.08 44.5631C106.412 45.0307 105.659 45.5436 104.801 46.0716C103.942 46.5996 102.961 47.1653 101.928 47.7386C100.894 48.3118 99.8531 48.8398 98.8119 49.3226C97.7707 49.8053 96.7676 50.2277 95.772 50.5747C94.9292 50.8851 94.0553 51.1051 93.1653 51.2309C92.6959 51.2996 92.2166 51.2177 91.7973 50.9971C91.3857 50.7727 91.0539 50.4276 90.8474 50.009C90.5172 49.3378 90.4006 48.5827 90.513 47.8442C90.6288 46.9284 90.8851 46.0355 91.273 45.1967C91.7457 44.1841 92.3158 43.2192 92.9753 42.3153C93.7013 41.3065 94.4908 40.3441 95.3388 39.4339C96.22 38.4945 97.1591 37.6102 98.1507 36.7864C99.1099 35.9905 100.126 35.2644 101.191 34.6141C102.151 34.0254 103.17 33.5351 104.231 33.1508C105.141 32.8177 106.103 32.6466 107.073 32.6454C107.734 32.6982 108.137 32.8641 108.296 33.1508C108.374 33.3174 108.414 33.4989 108.414 33.6825C108.414 33.8662 108.374 34.0476 108.296 34.2143C108.111 34.6966 107.855 35.149 107.536 35.5569C107.179 36.0297 106.796 36.4829 106.389 36.9146C105.986 37.3521 105.629 37.7293 105.264 38.0461C104.899 38.3629 104.679 38.5741 104.55 38.6721C104.438 38.6541 104.331 38.6184 104.231 38.5665C104.133 38.5143 104.056 38.4323 104.01 38.3327C103.962 38.2142 103.962 38.0816 104.01 37.9631C104.122 37.7626 104.281 37.5918 104.474 37.4653Z" fill="#099221"/>
        <path d="M104.854 47.5576C105.15 46.924 105.538 46.1998 106.001 45.3701L107.339 42.964C107.841 42.0343 108.29 41.0774 108.684 40.0977C109.079 39.1247 109.444 38.1667 109.877 37.2163C110.31 36.2659 110.713 35.3533 111.177 34.4632C111.654 33.5681 112.23 32.7283 112.894 31.959C113.083 31.7164 113.321 31.516 113.593 31.3706C113.787 31.2734 114 31.2217 114.217 31.2198C114.297 31.2197 114.376 31.2389 114.448 31.2757C114.519 31.3124 114.581 31.3657 114.627 31.431C114.729 31.587 114.77 31.7751 114.741 31.959C114.6 32.6017 114.381 33.2248 114.087 33.8145C113.715 34.6291 113.259 35.5418 112.719 36.5375C112.18 37.5331 111.572 38.574 110.895 39.6753C110.219 40.7766 109.55 41.825 108.889 42.8282C108.783 43.0017 108.646 43.2506 108.464 43.5825C108.281 43.9144 108.076 44.2764 107.84 44.6837C108.182 44.4499 108.532 44.2312 108.889 44.0351C109.205 43.8606 109.542 43.7263 109.892 43.6353C110.164 43.5673 110.449 43.5673 110.721 43.6353C110.847 43.6775 110.962 43.7466 111.057 43.8379C111.153 43.9291 111.228 44.0402 111.275 44.1633C111.398 44.4657 111.398 44.8037 111.275 45.1061C111.151 45.4921 110.99 45.8657 110.797 46.2225C110.599 46.6097 110.394 46.9868 110.181 47.3539C109.996 47.6607 109.845 47.987 109.733 48.3269C110.064 48.187 110.384 48.0231 110.69 47.8366C111.093 47.6028 111.519 47.3313 111.975 47.022C112.431 46.7128 112.902 46.396 113.388 46.049L114.756 45.0835L115.866 44.3292C116.185 44.1029 116.405 43.9445 116.535 43.8691L115.775 44.548C115.433 44.8648 115.015 45.2117 114.589 45.5964L113.191 46.7882C112.704 47.1955 112.233 47.5425 111.777 47.9271C111.372 48.2456 110.946 48.5355 110.5 48.7946C110.222 48.9733 109.917 49.1058 109.596 49.1868C109.193 49.2472 108.935 49.1868 108.836 49.0209C108.713 48.8058 108.677 48.552 108.737 48.3118C108.81 47.9611 108.922 47.6195 109.072 47.2936C109.244 46.9064 109.419 46.5292 109.596 46.1621C109.778 45.7925 109.93 45.4606 110.06 45.1589C110.165 44.956 110.22 44.731 110.219 44.5027C109.911 44.5735 109.62 44.7014 109.36 44.8798C108.996 45.0986 108.6 45.3475 108.251 45.6341C107.901 45.9208 107.491 46.1772 107.164 46.4488C106.837 46.7203 106.594 46.8938 106.465 46.9843C106.336 47.0748 106.389 47.105 106.358 47.1502C106.331 47.199 106.292 47.2404 106.244 47.2709C106.081 47.4431 105.873 47.5682 105.644 47.633C105.38 47.6963 105.101 47.6698 104.854 47.5576ZM109.467 40.241C109.87 39.6753 110.303 38.9964 110.782 38.2044C111.26 37.4124 111.709 36.628 112.134 35.8511C112.56 35.0742 112.894 34.3425 113.229 33.7089C113.461 33.2557 113.646 32.7807 113.783 32.2909C113.555 32.6152 113.244 33.1206 112.864 33.7994C112.484 34.4783 112.104 35.2024 111.671 35.9793L110.447 38.295C110.044 39.0568 109.718 39.7055 109.467 40.241Z" fill="#099221"/>
        <path d="M120.585 44.3066L121.725 44.1784C122.243 44.1225 122.753 44.0086 123.245 43.8389C122.958 44.06 122.617 44.2006 122.257 44.2463C121.756 44.3669 121.148 44.4801 120.448 44.5932C120.209 45.1525 119.869 45.6637 119.445 46.1018C119.005 46.5817 118.439 46.9315 117.811 47.1125C117.335 47.2669 116.824 47.2852 116.337 47.1653C116.012 47.0612 115.74 46.837 115.577 46.5393C115.429 46.224 115.381 45.8714 115.44 45.5285C115.499 45.1279 115.639 44.7431 115.851 44.3971C116.08 44.0184 116.376 43.6838 116.725 43.409C117.093 43.1155 117.529 42.9183 117.994 42.8357C118.378 42.5812 118.809 42.4044 119.263 42.3153C119.58 42.2498 119.91 42.2868 120.205 42.4209C120.33 42.4948 120.439 42.5942 120.522 42.7125C120.606 42.8308 120.664 42.9653 120.692 43.1073C120.764 43.5093 120.727 43.9233 120.585 44.3066ZM117.378 44.1407C117.1 44.3774 116.872 44.6673 116.709 44.993C116.55 45.2479 116.479 45.5467 116.504 45.8453C116.515 45.9593 116.562 46.0669 116.638 46.1524C116.715 46.2379 116.817 46.2968 116.93 46.3205C117.366 46.3497 117.801 46.2386 118.168 46.0037C118.455 45.8371 118.723 45.6398 118.966 45.4154C119.219 45.1938 119.441 44.9402 119.628 44.6611C119.154 44.6981 118.678 44.665 118.214 44.5631C117.901 44.5039 117.611 44.3574 117.378 44.1407ZM118.966 43.7183C118.779 43.6417 118.573 43.6207 118.374 43.6579C118.151 43.711 117.935 43.7868 117.728 43.8842C117.978 44.0654 118.271 44.1796 118.579 44.2161C119.001 44.2793 119.428 44.3095 119.856 44.3066C120.05 44.0099 120.17 43.671 120.205 43.3185C120.246 43.0541 120.183 42.7843 120.03 42.5642C119.951 42.476 119.852 42.4074 119.741 42.3642C119.63 42.321 119.511 42.3042 119.392 42.3153C119.013 42.3587 118.655 42.5077 118.358 42.7452C118.767 42.7082 119.179 42.757 119.567 42.8885L118.966 43.7183Z" fill="#099221"/>
        <path d="M124.78 43.1752C124.605 43.5372 124.453 43.8615 124.317 44.1557C124.18 44.4499 124.051 44.729 123.921 45.0156C123.792 45.3022 123.663 45.5813 123.541 45.8604C123.42 46.1395 123.283 46.4487 123.162 46.7806C123.07 46.9843 123.101 47.0899 123.237 47.0974C123.443 47.0886 123.643 47.0317 123.823 46.9315C124.081 46.8108 124.37 46.6599 124.697 46.4714C125.023 46.2828 125.35 46.0867 125.669 45.883L126.528 45.3399C126.779 45.1891 126.946 45.0759 127.037 45.0156C127.455 44.7818 127.851 44.5404 128.208 44.3066C128.565 44.0727 128.877 43.8615 129.127 43.673L128.367 44.3066C128.028 44.5932 127.648 44.9025 127.227 45.2343C126.802 45.5738 126.353 45.9132 125.89 46.2602C125.426 46.6071 124.978 46.9164 124.552 47.203C124.189 47.4488 123.808 47.6681 123.412 47.8592C123.169 47.9935 122.893 48.0587 122.614 48.0478C122.523 48.0403 122.433 48.0147 122.352 47.9725C122.27 47.9303 122.198 47.8724 122.139 47.8021C122.081 47.7319 122.037 47.6507 122.01 47.5634C121.983 47.4761 121.974 47.3843 121.984 47.2935C122 46.7589 122.108 46.2308 122.303 45.7322C122.507 45.1266 122.761 44.5388 123.063 43.9747C123.382 43.4014 123.633 42.9413 123.823 42.617C123.823 42.5642 123.921 42.5415 124.051 42.5415C124.186 42.5424 124.32 42.568 124.446 42.617C124.572 42.6562 124.683 42.7324 124.765 42.8357C124.801 42.8846 124.821 42.9429 124.824 43.0032C124.827 43.0635 124.811 43.1233 124.78 43.1752ZM124.841 40.7539C125.12 40.8677 125.377 41.0285 125.601 41.2291C125.761 41.38 125.829 41.5082 125.791 41.6062C125.753 41.7043 125.639 41.7496 125.426 41.7571C125.12 41.7446 124.818 41.6755 124.537 41.5534C124.476 41.5534 124.431 41.478 124.393 41.3649C124.369 41.258 124.369 41.1474 124.393 41.0405C124.409 40.9366 124.46 40.8411 124.537 40.769C124.582 40.7402 124.634 40.7236 124.687 40.721C124.74 40.7183 124.794 40.7297 124.841 40.7539Z" fill="#099221"/>
        <path d="M132.403 43.673C131.977 43.4733 131.5 43.405 131.035 43.4768C130.62 43.5353 130.225 43.6876 129.88 43.9219C129.562 44.1358 129.291 44.4101 129.082 44.729C128.898 44.9934 128.798 45.3057 128.793 45.6266C128.8 45.764 128.838 45.898 128.905 46.0183C128.972 46.1387 129.067 46.242 129.181 46.3205C129.538 46.5276 129.957 46.6049 130.366 46.5392C131.223 46.404 132.057 46.1501 132.844 45.7849C134.206 45.1923 135.533 44.5224 136.818 43.7785L135.374 44.8195C134.789 45.2343 134.166 45.6341 133.497 46.0188C132.852 46.3953 132.178 46.7231 131.483 46.9993C130.892 47.2513 130.249 47.3624 129.606 47.3237C129.11 47.3172 128.63 47.1503 128.238 46.8485C127.948 46.5964 127.762 46.2475 127.714 45.8679C127.678 45.4607 127.754 45.0514 127.934 44.6837C128.134 44.2614 128.416 43.8821 128.763 43.5674C129.146 43.2282 129.596 42.9715 130.085 42.8131C130.63 42.6317 131.211 42.5801 131.78 42.6622C132.05 42.6688 132.313 42.7497 132.54 42.896C132.59 42.937 132.631 42.9875 132.661 43.0445C132.691 43.1015 132.709 43.1638 132.714 43.2279C132.711 43.3389 132.665 43.4443 132.585 43.5221L132.403 43.673Z" fill="#099221"/>
        <path d="M144 43.673C143.916 43.7484 143.749 43.8842 143.506 44.0728C143.263 44.2613 142.959 44.4801 142.602 44.7214C142.244 44.9628 141.842 45.2268 141.393 45.4757C140.945 45.7246 140.497 46.0188 140.025 46.2677C139.572 46.5051 139.105 46.7167 138.627 46.9013C138.211 47.0702 137.774 47.1843 137.327 47.2408C137.079 47.3012 136.821 47.3055 136.571 47.2532C136.321 47.201 136.086 47.0936 135.883 46.939C135.742 46.7971 135.633 46.6267 135.563 46.4394C135.494 46.252 135.466 46.052 135.481 45.8529C135.526 45.3564 135.695 44.8792 135.975 44.465C136.303 43.9633 136.746 43.5449 137.267 43.2431C137.621 43.0426 137.992 42.8735 138.376 42.7377C138.723 42.61 139.086 42.5313 139.455 42.5039C139.746 42.4722 140.04 42.5084 140.314 42.6095C140.426 42.6501 140.525 42.7186 140.602 42.8085C140.68 42.8984 140.732 43.0065 140.755 43.1224C140.784 43.292 140.768 43.4664 140.708 43.628C140.648 43.7895 140.546 43.9325 140.413 44.0426C140.073 44.3459 139.692 44.5998 139.281 44.7969C138.821 45.0291 138.343 45.2233 137.852 45.3777C137.35 45.5361 136.947 45.6492 136.628 45.7322C136.601 45.8407 136.599 45.9538 136.621 46.0634C136.643 46.173 136.69 46.2763 136.757 46.3658C136.879 46.5242 137.137 46.577 137.517 46.5317C138.08 46.4514 138.633 46.3124 139.167 46.1169C139.759 45.9057 140.36 45.6568 140.953 45.3626C141.545 45.0684 142.108 44.7818 142.647 44.465C143.187 44.1482 143.635 43.9219 144 43.673ZM137.267 44.6385C137.713 44.5082 138.148 44.3417 138.566 44.1407C138.917 43.9979 139.216 43.7534 139.425 43.4392C139.013 43.5038 138.619 43.6473 138.262 43.8616C137.898 44.0773 137.564 44.3384 137.267 44.6385Z" fill="#099221"/>
        <path fill-rule="evenodd" clip-rule="evenodd" d="M25.2464 9.04385V44.0199C25.2464 44.2839 25.2464 42.3454 25.2464 42.617C25.2464 42.8885 25.2464 43.1525 25.2464 43.4241V56.526C27.6258 55.0538 29.5882 53.0043 30.9485 50.5707C32.3087 48.1372 33.0219 45.3999 33.0209 42.617V0C27.2071 0 25.2464 5.8834 25.2464 9.04385Z" fill="url(#paint0_linear_1_3157)"/>
        <path fill-rule="evenodd" clip-rule="evenodd" d="M23.0348 7.37689V24.3256H17.4262V13.909C17.4262 11.6235 18.8018 7.37689 23.0348 7.37689Z" fill="#089121"/>
        <path fill-rule="evenodd" clip-rule="evenodd" d="M15.2223 13.66V24.3708C13.2925 24.5036 11.3966 24.9416 9.60608 25.6682V20.1619C9.60608 17.8765 11.0196 13.66 15.2223 13.66Z" fill="#089020"/>
        <path fill-rule="evenodd" clip-rule="evenodd" d="M16.4305 33.9126H22.2823V26.2339H16.4305C14.0199 26.2489 11.6419 26.7878 9.46362 27.8126C7.28534 28.8374 5.35964 30.3233 3.82191 32.1659C2.28417 34.0084 1.17171 36.1629 0.562721 38.4779C-0.0462664 40.7928 -0.136997 43.212 0.296905 45.5655C0.730806 47.919 1.67881 50.1496 3.07428 52.1005C4.46974 54.0514 6.2788 55.6753 8.37429 56.858C10.4698 58.0407 12.8008 58.7535 15.2036 58.9464C17.6064 59.1392 20.0226 58.8074 22.2823 57.9742V49.1868C21.2157 50.1067 19.9409 50.7573 18.5664 51.083C17.192 51.4088 15.7586 51.4001 14.3883 51.0576C13.018 50.7152 11.7513 50.0492 10.6961 49.1164C9.64096 48.1835 8.82853 47.0114 8.328 45.6998C7.82748 44.3882 7.65368 42.9761 7.8214 41.5835C7.98913 40.1909 8.49341 38.8592 9.29131 37.7016C10.0892 36.5441 11.1571 35.5951 12.4041 34.9354C13.6511 34.2756 15.0402 33.9247 16.4533 33.9126H16.4305Z" fill="#464747"/>
    </g>
    <defs>
        <linearGradient id="paint0_linear_1_3157" x1="39.4731" y1="4.61621" x2="16.6533" y2="53.6558" gradientUnits="userSpaceOnUse">
            <stop stop-color="#0C9C26"/>
            <stop offset="1" stop-color="#007C16"/>
        </linearGradient>
        <clipPath id="clip0_1_3157">
            <rect width="144" height="59" fill="white"/>
        </clipPath>
    </defs>
</svg>
