<svg width="167" height="69" viewBox="0 0 167 69" fill="none" xmlns="http://www.w3.org/2000/svg">
<g clip-path="url(#clip0_1_1580)">
<path d="M69.3983 28.7926C68.5477 26.7046 67.0532 24.943 65.1325 23.7645C62.5998 22.3716 59.7351 21.6975 56.8477 21.815H47.7168V45.3413H54.6972V28.5809H57.0592C59.104 28.5809 60.5847 28.9514 61.5277 29.7189C62.0514 30.1667 62.4629 30.7311 62.7292 31.3668C62.9956 32.0026 63.1093 32.692 63.0613 33.3797C63.0642 34.1234 62.9328 34.8616 62.6735 35.5586C62.4151 36.2808 61.964 36.9185 61.3691 37.4022C60.0569 38.2341 58.5107 38.6179 56.9623 38.496H55.8429V45.4119C56.7948 45.4119 57.4911 45.4825 57.9318 45.4825C61.9684 45.4825 65.1237 44.127 67.3976 41.4159C68.8159 39.6765 69.7483 37.5919 70.0997 35.3744C70.4511 33.157 70.2091 30.886 69.3983 28.7926Z" fill="white"/>
<path d="M95.4072 27.884C94.3912 25.844 92.8052 24.1432 90.8417 22.9882C88.9856 21.8454 86.8514 21.2351 84.6722 21.224C82.6484 21.2109 80.6508 21.6827 78.8464 22.6001C76.8034 23.619 75.0879 25.1925 73.8956 27.1407C72.7034 29.0889 72.0826 31.3334 72.104 33.6179C72.1045 35.2341 72.4219 36.8345 73.0383 38.3284C73.6672 39.8248 74.58 41.1849 75.7264 42.3333C76.871 43.5069 78.2433 44.4339 79.759 45.0574C81.2746 45.6809 82.9016 45.9876 84.54 45.9588C86.1528 45.9824 87.7532 45.6726 89.2409 45.0488C90.7287 44.4249 92.0718 43.5005 93.1861 42.3333C94.3454 41.2057 95.2636 39.8541 95.8848 38.3604C96.506 36.8667 96.8173 35.2622 96.7997 33.6443C96.8016 31.6405 96.3241 29.6654 95.4072 27.884ZM88.1448 37.4022C87.6721 37.9011 87.1028 38.2984 86.4717 38.5699C85.8406 38.8414 85.1608 38.9814 84.4739 38.9814C83.787 38.9814 83.1072 38.8414 82.4761 38.5699C81.845 38.2984 81.2757 37.9011 80.803 37.4022C80.3038 36.8965 79.9115 36.2953 79.6496 35.6345C79.3876 34.9737 79.2613 34.2668 79.2783 33.5561C79.2614 32.8347 79.3937 32.1176 79.6666 31.4497C79.9396 30.7818 80.3475 30.1775 80.8647 29.6748C81.3404 29.1882 81.9099 28.8036 82.5387 28.5443C83.1675 28.285 83.8424 28.1564 84.5224 28.1663C85.182 28.162 85.8355 28.2937 86.442 28.5532C87.0485 28.8127 87.5952 29.1945 88.0478 29.6748C88.562 30.1812 88.9672 30.7876 89.2385 31.4566C89.5098 32.1256 89.6415 32.8431 89.6254 33.5649C89.6581 34.9896 89.1258 36.3693 88.1448 37.4022Z" fill="white"/>
<path d="M116.384 27.443C116.095 25.5687 115.086 23.8814 113.572 22.7412C112.063 21.6818 110.25 21.143 108.407 21.2063C106.91 21.1983 105.43 21.5301 104.08 22.1767C102.856 22.7555 101.81 23.6508 101.048 24.7701C100.043 26.3478 99.5391 28.193 99.6024 30.0629V45.3237H106.6V30.3275C106.541 29.7389 106.684 29.1475 107.006 28.6515C107.146 28.4945 107.319 28.3704 107.512 28.2881C107.706 28.2057 107.915 28.1672 108.125 28.1751C109.121 28.1751 109.615 28.8897 109.615 30.3275V43.9123C110.502 42.9952 111.437 42.1266 112.417 41.31C113.62 40.307 114.893 39.3902 116.225 38.5666L116.595 38.3461V30.3275C116.613 29.3616 116.542 28.396 116.384 27.443Z" fill="white"/>
<path d="M142.745 27.884C141.713 25.8554 140.114 24.1701 138.144 23.0323C136.288 21.8899 134.154 21.2796 131.975 21.2681C129.954 21.256 127.959 21.7279 126.158 22.6442C124.123 23.6594 122.415 25.2266 121.227 27.1669C120.04 29.1072 119.421 31.3426 119.442 33.6179C119.44 34.6964 119.582 35.7703 119.865 36.8112C119.968 36.7624 120.074 36.7211 120.182 36.6877C121.433 36.2272 122.754 35.9827 124.087 35.9643H124.289C126.334 36.1231 127.207 36.9964 127.594 37.7286C127.648 37.8075 127.689 37.8936 127.718 37.9844C127.841 37.7903 127.982 37.5874 128.123 37.4022C127.629 36.8988 127.24 36.3016 126.98 35.6457C126.719 34.9897 126.593 34.2883 126.607 33.5826C126.595 32.8609 126.73 32.1443 127.004 31.4769C127.278 30.8094 127.686 30.2051 128.203 29.7012C128.678 29.2143 129.247 28.8294 129.876 28.57C130.505 28.3107 131.18 28.1823 131.86 28.1928C132.52 28.1895 133.173 28.3217 133.779 28.5811C134.386 28.8406 134.932 29.2218 135.386 29.7012C135.898 30.2084 136.302 30.8151 136.572 31.4841C136.841 32.1531 136.972 32.8702 136.954 33.5914C136.986 35.0175 136.45 36.3977 135.465 37.4287C135.402 37.4951 135.334 37.557 135.262 37.6139V37.7286C135.075 38.6836 134.761 39.6092 134.328 40.4808C133.879 41.4864 133.332 42.6067 132.68 43.8064C132.301 44.4945 131.913 45.2002 131.481 45.9412H131.869C133.481 45.9657 135.08 45.6562 136.566 45.0323C138.053 44.4084 139.394 43.4834 140.506 42.3156C141.669 41.1882 142.591 39.8357 143.216 38.3404C143.84 36.8452 144.153 35.2384 144.138 33.6179C144.135 31.623 143.658 29.6574 142.745 27.884Z" fill="white"/>
<path d="M162.144 35.6556C163.108 34.9733 163.895 34.0692 164.438 33.0192C164.981 31.9692 165.264 30.8041 165.264 29.6218C165.259 28.6181 165.065 27.6244 164.691 26.6932C164.274 25.6084 163.61 24.6359 162.752 23.8527C161.245 22.5031 159.129 21.815 156.397 21.815H147.425V45.3413H154.423V28.1399H155.648C156.248 28.0937 156.851 28.1842 157.411 28.4045C157.676 28.5325 157.896 28.7371 158.044 28.9918C158.192 29.2466 158.26 29.5398 158.239 29.8336C158.253 30.0981 158.207 30.3623 158.105 30.6067C158.003 30.851 157.847 31.0691 157.649 31.2449C157.19 31.5994 156.613 31.7665 156.036 31.7125H155.481V37.7639L158.874 45.3413H166.207L162.144 35.6556Z" fill="white"/>
<path d="M121.16 43.8153C121.504 43.4624 121.901 43.0566 122.342 42.5715C122.782 42.0863 123.223 41.6364 123.54 41.1865C123.844 40.8107 124.109 40.4059 124.333 39.978C124.501 39.6163 124.483 39.3782 124.254 39.2458C123.737 39.0336 123.158 39.0336 122.641 39.2458C121.783 39.5013 120.958 39.8566 120.182 40.3044C119.162 40.8897 118.179 41.5378 117.238 42.2451C116.198 43.0302 115.158 43.8858 114.127 44.8297C113.096 45.7736 112.109 46.7704 111.175 47.8201C110.282 48.8114 109.452 49.8572 108.689 50.9517C108.016 51.9109 107.449 52.9401 106.997 54.0215C106.616 54.8919 106.421 55.8323 106.424 56.7825C106.394 57.0424 106.419 57.3058 106.498 57.5553C106.577 57.8047 106.708 58.0344 106.882 58.2292C107.228 58.5162 107.64 58.7104 108.081 58.7938C108.831 58.905 109.597 58.8292 110.311 58.5732C111.408 58.2528 112.485 57.8669 113.537 57.4177C114.712 56.9237 115.94 56.3591 117.221 55.724C118.502 55.0888 119.712 54.4567 120.852 53.8274C121.992 53.1923 123.005 52.6042 123.893 52.0632C124.774 51.5339 125.426 51.1193 125.841 50.8282C125.497 51.1369 124.959 51.5692 124.184 52.1161C123.408 52.663 122.535 53.2628 121.539 53.8803C120.544 54.4978 119.407 55.1594 118.208 55.8298C117.009 56.5002 115.802 57.1177 114.594 57.6823C113.387 58.2469 112.224 58.7409 111.069 59.1466C110.091 59.5097 109.078 59.7669 108.046 59.9141C107.501 59.9944 106.946 59.8986 106.459 59.6406C105.982 59.3782 105.597 58.9746 105.358 58.485C104.975 57.7001 104.84 56.8171 104.97 55.9533C105.104 54.8823 105.401 53.8381 105.851 52.8571C106.4 51.6729 107.061 50.5444 107.826 49.4873C108.668 48.3076 109.583 47.1821 110.567 46.1176C111.588 45.0189 112.678 43.9848 113.828 43.0214C114.94 42.0905 116.118 41.2414 117.353 40.4808C118.467 39.7924 119.648 39.219 120.878 38.7695C121.934 38.38 123.05 38.1799 124.175 38.1785C124.942 38.2402 125.409 38.4343 125.594 38.7695C125.684 38.9644 125.73 39.1766 125.73 39.3914C125.73 39.6062 125.684 39.8184 125.594 40.0133C125.379 40.5773 125.082 41.1064 124.712 41.5835C124.298 42.1363 123.853 42.6664 123.382 43.1713C122.914 43.6829 122.5 44.124 122.077 44.4945C121.654 44.865 121.398 45.112 121.249 45.2267C121.119 45.2056 120.994 45.1639 120.878 45.1032C120.766 45.0422 120.676 44.9462 120.623 44.8297C120.567 44.6912 120.567 44.536 120.623 44.3975C120.753 44.163 120.937 43.9632 121.16 43.8153Z" fill="white"/>
<path d="M121.601 55.6181C121.945 54.8771 122.394 54.0303 122.932 53.0599L124.483 50.246C125.066 49.1587 125.586 48.0396 126.043 46.8939C126.502 45.7559 126.925 44.6356 127.427 43.5242C127.929 42.4127 128.396 41.3453 128.934 40.3044C129.488 39.2576 130.156 38.2754 130.926 37.3757C131.145 37.092 131.421 36.8576 131.737 36.6877C131.961 36.5739 132.208 36.5135 132.46 36.5112C132.553 36.5112 132.645 36.5336 132.728 36.5766C132.81 36.6196 132.882 36.6819 132.935 36.7582C133.054 36.9407 133.101 37.1606 133.068 37.3757C132.904 38.1273 132.65 38.8561 132.31 39.5458C131.878 40.4985 131.349 41.5658 130.723 42.7302C130.097 43.8947 129.392 45.112 128.608 46.3999C127.824 47.6878 127.048 48.914 126.281 50.0872C126.158 50.2901 125.999 50.5812 125.788 50.9693C125.576 51.3574 125.338 51.7809 125.065 52.2572C125.462 51.9838 125.867 51.7279 126.281 51.4986C126.648 51.2946 127.039 51.1375 127.445 51.0311C127.76 50.9515 128.09 50.9515 128.405 51.0311C128.551 51.0804 128.685 51.1613 128.796 51.268C128.907 51.3747 128.993 51.5046 129.049 51.6486C129.191 52.0022 129.191 52.3975 129.049 52.7512C128.904 53.2025 128.718 53.6396 128.493 54.0568C128.264 54.5096 128.026 54.9506 127.78 55.3799C127.564 55.7387 127.39 56.1204 127.259 56.5179C127.643 56.3543 128.014 56.1626 128.37 55.9445C128.837 55.671 129.331 55.3535 129.86 54.9918C130.388 54.6301 130.935 54.2596 131.499 53.8539L133.085 52.7247L134.372 51.8426C134.742 51.578 134.998 51.3927 135.148 51.3045L134.266 52.0984C133.87 52.4689 133.385 52.8747 132.891 53.3246L131.27 54.7184C130.706 55.1947 130.159 55.6005 129.63 56.0504C129.161 56.4228 128.666 56.7618 128.15 57.0648C127.827 57.2739 127.473 57.4288 127.101 57.5235C126.634 57.5941 126.334 57.5235 126.219 57.3295C126.077 57.078 126.036 56.7811 126.105 56.5003C126.189 56.09 126.319 55.6906 126.493 55.3094C126.692 54.8566 126.895 54.4155 127.101 53.9862C127.312 53.5539 127.489 53.1658 127.638 52.813C127.761 52.5757 127.824 52.3125 127.824 52.0455C127.467 52.1283 127.129 52.2779 126.828 52.4866C126.405 52.7424 125.946 53.0335 125.541 53.3687C125.135 53.7039 124.659 54.0038 124.281 54.3214C123.902 54.639 123.619 54.8418 123.47 54.9477C123.32 55.0536 123.382 55.0888 123.346 55.1418C123.314 55.1988 123.269 55.2472 123.214 55.2829C123.024 55.4843 122.784 55.6306 122.518 55.7063C122.211 55.7804 121.888 55.7494 121.601 55.6181ZM126.951 47.0615C127.418 46.3999 127.921 45.606 128.476 44.6797C129.031 43.7535 129.551 42.8361 130.045 41.9275C130.538 41.0189 130.926 40.1633 131.314 39.4223C131.583 38.8922 131.798 38.3367 131.957 37.7639C131.693 38.1432 131.331 38.7342 130.891 39.5281C130.45 40.322 130.009 41.1689 129.507 42.0775L128.088 44.7856C127.621 45.6766 127.242 46.4352 126.951 47.0615Z" fill="white"/>
<path d="M139.845 51.8162L141.167 51.6662C141.768 51.6008 142.359 51.4677 142.93 51.2692C142.598 51.5277 142.202 51.6923 141.784 51.7456C141.203 51.8867 140.498 52.0191 139.687 52.1514C139.409 52.8054 139.015 53.4033 138.523 53.9156C138.013 54.4769 137.357 54.8859 136.628 55.0977C136.075 55.2783 135.483 55.2997 134.919 55.1594C134.542 55.0376 134.226 54.7755 134.037 54.4273C133.866 54.0585 133.81 53.6462 133.879 53.2452C133.947 52.7767 134.109 52.3267 134.354 51.922C134.62 51.4792 134.964 51.0878 135.368 50.7664C135.795 50.4231 136.301 50.1926 136.84 50.096C137.286 49.7983 137.786 49.5915 138.312 49.4874C138.68 49.4108 139.063 49.4541 139.405 49.6109C139.55 49.6973 139.675 49.8135 139.772 49.9519C139.87 50.0902 139.937 50.2475 139.969 50.4136C140.053 50.8838 140.01 51.3679 139.845 51.8162ZM136.126 51.6221C135.803 51.899 135.54 52.238 135.35 52.6189C135.166 52.917 135.083 53.2665 135.112 53.6157C135.125 53.749 135.179 53.8748 135.268 53.9748C135.357 54.0748 135.475 54.1437 135.606 54.1714C136.112 54.2056 136.616 54.0757 137.043 53.801C137.375 53.606 137.686 53.3753 137.968 53.1129C138.261 52.8537 138.519 52.5571 138.735 52.2308C138.186 52.274 137.633 52.2354 137.095 52.1161C136.732 52.0469 136.396 51.8756 136.126 51.6221ZM137.968 51.1281C137.751 51.0386 137.512 51.014 137.281 51.0575C137.022 51.1196 136.771 51.2083 136.531 51.3222C136.822 51.5341 137.162 51.6677 137.519 51.7103C138.009 51.7842 138.504 51.8196 138.999 51.8162C139.225 51.4692 139.364 51.0728 139.405 50.6606C139.452 50.3514 139.379 50.0359 139.202 49.7785C139.11 49.6753 138.995 49.5951 138.866 49.5446C138.738 49.494 138.599 49.4744 138.462 49.4874C138.023 49.5381 137.607 49.7124 137.263 49.9902C137.737 49.9468 138.214 50.004 138.664 50.1578L137.968 51.1281Z" fill="white"/>
<path d="M144.71 50.493C144.508 50.9164 144.331 51.2957 144.173 51.6397C144.014 51.9838 143.864 52.3102 143.714 52.6454C143.565 52.9806 143.415 53.307 143.274 53.6333C143.133 53.9597 142.974 54.3214 142.833 54.7095C142.727 54.9477 142.763 55.0712 142.921 55.08C143.16 55.0697 143.392 55.0032 143.6 54.886C143.9 54.7448 144.234 54.5684 144.613 54.3479C144.992 54.1273 145.371 53.898 145.742 53.6598L146.738 53.0247C147.028 52.8482 147.222 52.7159 147.328 52.6454C147.813 52.3719 148.271 52.0896 148.685 51.8162C149.1 51.5427 149.461 51.2957 149.752 51.0752L148.87 51.8162C148.477 52.1514 148.036 52.513 147.548 52.9012C147.055 53.2981 146.535 53.6951 145.997 54.1009C145.46 54.5066 144.94 54.8683 144.446 55.2035C144.024 55.4909 143.583 55.7474 143.124 55.971C142.842 56.128 142.521 56.2043 142.199 56.1915C142.092 56.1827 141.989 56.1527 141.894 56.1034C141.8 56.0541 141.716 55.9863 141.648 55.9042C141.58 55.8221 141.529 55.7271 141.497 55.625C141.466 55.5229 141.456 55.4156 141.467 55.3094C141.486 54.6841 141.611 54.0666 141.837 53.4834C142.074 52.7752 142.369 52.0878 142.719 51.428C143.089 50.7576 143.38 50.2195 143.6 49.8402C143.6 49.7784 143.714 49.752 143.864 49.752C144.021 49.753 144.177 49.7829 144.323 49.8402C144.469 49.886 144.598 49.9752 144.693 50.096C144.734 50.1532 144.758 50.2213 144.761 50.2919C144.764 50.3624 144.747 50.4323 144.71 50.493ZM144.781 47.6613C145.104 47.7945 145.403 47.9825 145.662 48.2171C145.847 48.3935 145.927 48.5435 145.883 48.6581C145.839 48.7728 145.706 48.8257 145.46 48.8346C145.104 48.82 144.754 48.7392 144.428 48.5964C144.358 48.5964 144.305 48.5082 144.261 48.3759C144.233 48.2509 144.233 48.1215 144.261 47.9966C144.28 47.8751 144.339 47.7634 144.428 47.679C144.48 47.6453 144.54 47.6259 144.602 47.6228C144.664 47.6197 144.726 47.633 144.781 47.6613Z" fill="white"/>
<path d="M153.55 51.0752C153.056 50.8417 152.504 50.7618 151.964 50.8458C151.483 50.9142 151.025 51.0922 150.624 51.3663C150.256 51.6164 149.942 51.9373 149.699 52.3102C149.486 52.6194 149.37 52.9846 149.364 53.3599C149.372 53.5206 149.416 53.6774 149.494 53.8181C149.572 53.9588 149.681 54.0797 149.814 54.1714C150.228 54.4137 150.714 54.5041 151.188 54.4273C152.183 54.2691 153.15 53.9721 154.062 53.5451C155.642 52.852 157.181 52.0686 158.671 51.1987L156.997 52.416C156.318 52.9012 155.595 53.3687 154.82 53.8186C154.071 54.2589 153.29 54.6423 152.484 54.9653C151.798 55.26 151.052 55.3899 150.307 55.3447C149.732 55.3371 149.175 55.1419 148.721 54.7889C148.384 54.4941 148.168 54.0861 148.112 53.6422C148.071 53.1659 148.159 52.6873 148.368 52.2572C148.6 51.7634 148.926 51.3198 149.329 50.9517C149.774 50.5551 150.296 50.2548 150.862 50.0695C151.495 49.8575 152.168 49.797 152.828 49.8931C153.141 49.9008 153.446 49.9955 153.709 50.1666C153.767 50.2145 153.815 50.2735 153.85 50.3402C153.884 50.4068 153.906 50.4798 153.912 50.5547C153.908 50.6844 153.854 50.8077 153.762 50.8987L153.55 51.0752Z" fill="white"/>
<path d="M167 51.0752C166.903 51.1634 166.709 51.3222 166.427 51.5427C166.145 51.7632 165.793 52.019 165.378 52.3013C164.964 52.5836 164.497 52.8923 163.977 53.1834C163.457 53.4745 162.937 53.8186 162.391 54.1097C161.864 54.3873 161.323 54.6348 160.769 54.8507C160.286 55.0482 159.779 55.1816 159.262 55.2476C158.974 55.3183 158.674 55.3233 158.384 55.2622C158.094 55.2012 157.822 55.0756 157.587 54.8948C157.423 54.7288 157.296 54.5295 157.216 54.3104C157.135 54.0913 157.103 53.8574 157.12 53.6245C157.172 53.044 157.369 52.4858 157.693 52.0014C158.074 51.4147 158.587 50.9253 159.191 50.5724C159.602 50.3379 160.033 50.1402 160.478 49.9813C160.88 49.832 161.302 49.7399 161.73 49.7079C162.067 49.6709 162.408 49.7131 162.725 49.8314C162.855 49.8789 162.97 49.9591 163.06 50.0642C163.149 50.1692 163.21 50.2957 163.237 50.4312C163.271 50.6297 163.252 50.8336 163.182 51.0225C163.113 51.2114 162.995 51.3787 162.84 51.5074C162.446 51.8621 162.004 52.1591 161.527 52.3895C160.994 52.6611 160.44 52.8883 159.87 53.0688C159.288 53.254 158.821 53.3863 158.451 53.4834C158.419 53.6103 158.417 53.7426 158.442 53.8708C158.468 53.9989 158.522 54.1197 158.601 54.2244C158.742 54.4096 159.041 54.4714 159.482 54.4184C160.135 54.3245 160.776 54.1619 161.395 53.9333C162.082 53.6863 162.778 53.3952 163.466 53.0511C164.153 52.7071 164.805 52.3719 165.431 52.0014C166.057 51.6309 166.577 51.3663 167 51.0752ZM159.191 52.2043C159.709 52.0519 160.213 51.8572 160.698 51.6221C161.105 51.4551 161.452 51.1692 161.694 50.8017C161.217 50.8774 160.759 51.0451 160.346 51.2957C159.924 51.548 159.536 51.8534 159.191 52.2043Z" fill="white"/>
<path fill-rule="evenodd" clip-rule="evenodd" d="M29.2788 10.5767V51.4809C29.2788 51.7897 29.2788 49.5226 29.2788 49.8402C29.2788 50.1578 29.2788 50.4665 29.2788 50.7841V66.1066C32.0383 64.3849 34.3141 61.988 35.8916 59.142C37.4691 56.2961 38.2963 53.0948 38.2951 49.8402V0C31.5527 0 29.2788 6.88059 29.2788 10.5767Z" fill="white"/>
<path fill-rule="evenodd" clip-rule="evenodd" d="M26.714 8.6272V28.4486H20.2096V16.2664C20.2096 13.5936 21.8048 8.6272 26.714 8.6272Z" fill="white"/>
<path fill-rule="evenodd" clip-rule="evenodd" d="M17.6536 15.9753V28.5015C15.4157 28.6568 13.2169 29.169 11.1404 30.0188V23.5793C11.1404 20.9064 12.7797 15.9753 17.6536 15.9753Z" fill="white"/>
<path fill-rule="evenodd" clip-rule="evenodd" d="M19.055 39.6605H25.8415V30.6804H19.055C16.2594 30.6979 13.5016 31.3281 10.9754 32.5266C8.44919 33.7251 6.21592 35.4629 4.43257 37.6177C2.64922 39.7726 1.35908 42.2922 0.652824 44.9995C-0.0534322 47.7069 -0.158654 50.5361 0.344551 53.2885C0.847756 56.0409 1.94718 58.6495 3.56553 60.9311C5.18388 63.2127 7.28189 65.1118 9.71208 66.495C12.1423 67.8782 14.8456 68.7118 17.6322 68.9373C20.4187 69.1628 23.2208 68.7747 25.8415 67.8003V57.5235C24.6045 58.5994 23.1261 59.3602 21.5321 59.7412C19.9382 60.1221 18.2758 60.112 16.6866 59.7115C15.0974 59.311 13.6285 58.5322 12.4048 57.4412C11.1811 56.3502 10.2389 54.9794 9.6584 53.4456C9.07792 51.9117 8.87636 50.2602 9.07088 48.6315C9.26539 47.0029 9.85022 45.4455 10.7756 44.0918C11.7009 42.738 12.9394 41.6282 14.3855 40.8566C15.8317 40.0851 17.4427 39.6747 19.0814 39.6605H19.055Z" fill="white"/>
</g>
<defs>
<clipPath id="clip0_1_1580">
<rect width="167" height="69" fill="white"/>
</clipPath>
</defs>
</svg>
