<svg width="24" height="24" viewBox="0 0 24 24" fill="none"
    xmlns="http://www.w3.org/2000/svg">
    <path d="M7.75 18.8082V14.2302L11.423 16.5182L7.75 18.8082ZM13 9.61519C12.252 9.61519 11.6163 9.35386 11.093 8.83119C10.5697 8.30919 10.308 7.67486 10.308 6.92819C10.308 6.18152 10.5697 5.54519 11.093 5.01919C11.6163 4.49386 12.252 4.23119 13 4.23119H13.942V5.11519H13C12.498 5.11519 12.0713 5.29152 11.72 5.64419C11.368 5.99686 11.192 6.42486 11.192 6.92819C11.192 7.43152 11.368 7.85786 11.72 8.20719C12.0713 8.55652 12.498 8.73119 13 8.73119H13.942V9.61519H13ZM16.058 9.61519V8.73119H17C17.502 8.73119 17.9287 8.55486 18.28 8.20219C18.632 7.85019 18.808 7.42252 18.808 6.91919C18.808 6.41519 18.632 5.98852 18.28 5.63919C17.928 5.28986 17.5013 5.11519 17 5.11519H16.058V4.23119H17C17.748 4.23119 18.3837 4.49252 18.907 5.01519C19.4303 5.53786 19.692 6.17252 19.692 6.91919C19.692 7.66586 19.4303 8.30186 18.907 8.82719C18.3837 9.35252 17.748 9.61519 17 9.61519H16.058ZM13.308 7.36519V6.48119H16.692V7.36519H13.308ZM15.542 13.0962V12.0962H20.385C20.5643 12.0962 20.7117 12.0385 20.827 11.9232C20.9423 11.8079 21 11.6605 21 11.4812V3.71019C21 3.53086 20.9423 3.38352 20.827 3.26819C20.7117 3.15286 20.5643 3.09519 20.385 3.09519H9.615C9.43567 3.09519 9.28833 3.15286 9.173 3.26819C9.05767 3.38352 9 3.53152 9 3.71219V11.5192H8V3.71219C8 3.26752 8.15833 2.88719 8.475 2.57119C8.791 2.25452 9.171 2.09619 9.615 2.09619H20.385C20.829 2.09619 21.209 2.25452 21.525 2.57119C21.8417 2.88719 22 3.26719 22 3.71119V11.4812C22 11.9252 21.8417 12.3052 21.525 12.6212C21.209 12.9379 20.829 13.0962 20.385 13.0962H15.542ZM3.615 21.9042C3.171 21.9042 2.791 21.7459 2.475 21.4292C2.15833 21.1132 2 20.7335 2 20.2902V12.7502C2 12.3062 2.15833 11.9262 2.475 11.6102C2.791 11.2935 3.171 11.1352 3.615 11.1352H14.385C14.829 11.1352 15.209 11.2932 15.525 11.6092C15.8417 11.9259 16 12.3062 16 12.7502V20.2882C16 20.7329 15.8417 21.1132 15.525 21.4292C15.209 21.7459 14.829 21.9042 14.385 21.9042H3.615ZM3.615 20.9042H14.385C14.5643 20.9042 14.7117 20.8465 14.827 20.7312C14.9423 20.6159 15 20.4682 15 20.2882V12.7502C15 12.5702 14.9423 12.4229 14.827 12.3082C14.7117 12.1935 14.5643 12.1359 14.385 12.1352H3.615C3.43567 12.1352 3.28833 12.1929 3.173 12.3082C3.05767 12.4235 3 12.5709 3 12.7502V20.2882C3 20.4682 3.05767 20.6159 3.173 20.7312C3.28833 20.8465 3.43567 20.9042 3.615 20.9042Z" fill="#007C16"/>
</svg>
