<svg width="4" height="13" viewBox="0 0 4 13" fill="none"
    xmlns="http://www.w3.org/2000/svg">
    <path d="M1.05453 11.538C1.06079 12.3171 1.7034 12.9495 2.48254 12.9432C3.26168 12.9369 3.89403 12.2943 3.88777 11.5152C3.88151 10.736 3.2389 10.1037 2.45976 10.11C1.68062 10.1162 1.04827 10.7588 1.05453 11.538ZM0.974806 1.62162C0.98107 2.40076 1.62367 3.03312 2.40282 3.02686C3.18196 3.02059 3.81431 2.37799 3.80805 1.59885C3.80178 0.819704 3.15918 0.187349 2.38004 0.193613C1.6009 0.199877 0.968542 0.842482 0.974806 1.62162ZM1.01467 6.5798C1.02093 7.35894 1.66354 7.99129 2.44268 7.98503C3.22182 7.97876 3.85417 7.33616 3.84791 6.55702C3.84165 5.77788 3.19904 5.14552 2.4199 5.15179C1.64076 5.15805 1.0084 5.80065 1.01467 6.5798Z" fill="#464747"/>
</svg>
