<svg width="15" height="15" viewBox="0 0 15 15" fill="none"
    xmlns="http://www.w3.org/2000/svg">
    <path d="M3.5 10.4941L3.757 10.0651L3.638 9.9951H3.5V10.4941ZM3.5 4.49811V4.99811H3.638L3.758 4.9271L3.5 4.49811ZM8.5 1.5001H9C9.00002 1.41164 8.97657 1.32475 8.93203 1.24831C8.8875 1.17187 8.82349 1.10861 8.74652 1.065C8.66956 1.02138 8.58239 0.998964 8.49394 1.00004C8.40548 1.00111 8.31888 1.02563 8.243 1.0711L8.5 1.5001ZM8.5 13.4921L8.243 13.9211C8.31888 13.9666 8.40548 13.9911 8.49394 13.9922C8.58239 13.9932 8.66956 13.9708 8.74652 13.9272C8.82349 13.8836 8.8875 13.8203 8.93203 13.7439C8.97657 13.6675 9.00002 13.5806 9 13.4921H8.5ZM11.44 5.7291L11.086 5.3761L10.379 6.08311L10.733 6.4371L11.44 5.7291ZM13.56 9.2631L13.914 9.61611L14.621 8.90911L14.267 8.5561L13.56 9.2631ZM14.268 6.4371L14.621 6.08311L13.914 5.3761L13.561 5.7291L14.268 6.4371ZM10.733 8.5561L10.379 8.90911L11.086 9.61611L11.44 9.2631L10.733 8.5561ZM3.5 9.9951L1.5 9.99411V10.9941H3.5V9.9951ZM1.5 9.99411C1.4343 9.99424 1.36922 9.98139 1.3085 9.95631C1.24778 9.93123 1.19261 9.89441 1.14615 9.84795C1.0997 9.8015 1.06287 9.74632 1.03779 9.6856C1.01271 9.62488 0.999868 9.5598 1 9.49411H0C0 10.3241 0.671 10.9941 1.5 10.9941V9.99411ZM1 9.49411V5.49811H0V9.49611L1 9.49411ZM1 5.49811C1 5.22211 1.223 4.99811 1.5 4.99811V3.9981C0.671 3.9981 0 4.66811 0 5.49811H1ZM1.5 4.99811H3.5V3.9981H1.5V4.99811ZM3.758 4.9271L8.757 1.9291L8.243 1.0711L3.243 4.0691L3.758 4.9271ZM8 1.5001V13.4921H9V1.5001H8ZM8.757 13.0631L3.757 10.0651L3.243 10.9231L8.243 13.9211L8.757 13.0631ZM10.733 6.4371L13.56 9.2631L14.267 8.5561L11.44 5.7291L10.733 6.4371ZM13.561 5.7291L10.733 8.5561L11.44 9.2631L14.268 6.4371L13.561 5.7291Z" fill="#007C16"/>
</svg>
