<svg width="16" height="12" viewBox="0 0 16 12" fill="none"
    xmlns="http://www.w3.org/2000/svg">
    <path d="M0.571429 0C0.419876 0 0.274531 0.0632142 0.167368 0.175736C0.0602039 0.288258 0 0.44087 0 0.6C0 0.75913 0.0602039 0.911742 0.167368 1.02426C0.274531 1.13679 0.419876 1.2 0.571429 1.2H15.4286C15.5801 1.2 15.7255 1.13679 15.8326 1.02426C15.9398 0.911742 16 0.75913 16 0.6C16 0.44087 15.9398 0.288258 15.8326 0.175736C15.7255 0.0632142 15.5801 0 15.4286 0H0.571429ZM0.571429 3.6C0.419876 3.6 0.274531 3.66321 0.167368 3.77574C0.0602039 3.88826 0 4.04087 0 4.2C0 4.35913 0.0602039 4.51174 0.167368 4.62426C0.274531 4.73679 0.419876 4.8 0.571429 4.8H15.4286C15.5801 4.8 15.7255 4.73679 15.8326 4.62426C15.9398 4.51174 16 4.35913 16 4.2C16 4.04087 15.9398 3.88826 15.8326 3.77574C15.7255 3.66321 15.5801 3.6 15.4286 3.6H0.571429ZM0 7.8C0 7.95913 0.0602039 8.11174 0.167368 8.22427C0.274531 8.33679 0.419876 8.4 0.571429 8.4H15.4286C15.5801 8.4 15.7255 8.33679 15.8326 8.22427C15.9398 8.11174 16 7.95913 16 7.8C16 7.64087 15.9398 7.48826 15.8326 7.37574C15.7255 7.26321 15.5801 7.2 15.4286 7.2H0.571429C0.419876 7.2 0.274531 7.26321 0.167368 7.37574C0.0602039 7.48826 0 7.64087 0 7.8ZM0.571429 10.8C0.419876 10.8 0.274531 10.8632 0.167368 10.9757C0.0602039 11.0883 0 11.2409 0 11.4C0 11.5591 0.0602039 11.7117 0.167368 11.8243C0.274531 11.9368 0.419876 12 0.571429 12H10.2857C10.4373 12 10.5826 11.9368 10.6898 11.8243C10.7969 11.7117 10.8571 11.5591 10.8571 11.4C10.8571 11.2409 10.7969 11.0883 10.6898 10.9757C10.5826 10.8632 10.4373 10.8 10.2857 10.8H0.571429Z" fill="#464747"/>
</svg>
