<svg width="28" height="28" viewBox="0 0 28 28" fill="none"
    xmlns="http://www.w3.org/2000/svg">
    <path fill-rule="evenodd" clip-rule="evenodd" d="M8.94331 25.6663H19.0544C23.0097 25.6663 25.6661 22.8919 25.6661 18.7635V9.23585C25.6661 5.10747 23.0097 2.33301 19.0556 2.33301H8.94331C4.98914 2.33301 2.33276 5.10747 2.33276 9.23585V18.7635C2.33276 22.8919 4.98914 25.6663 8.94331 25.6663ZM9.91411 12.8331C8.3057 12.8331 6.99878 11.5244 6.99878 9.9164C6.99878 8.30842 8.3057 6.99973 9.91411 6.99973C11.5214 6.99973 12.8295 8.30842 12.8295 9.9164C12.8295 11.5244 11.5214 12.8331 9.91411 12.8331ZM23.1232 17.4227C23.5138 18.4244 23.3109 19.6284 22.8932 20.6205C22.3982 21.8004 21.4502 22.6938 20.2559 23.0838C19.7257 23.2572 19.1696 23.3331 18.6147 23.3331H8.78232C7.80389 23.3331 6.93809 23.0983 6.22832 22.6612C5.78369 22.3867 5.70509 21.7534 6.03475 21.3429C6.58614 20.6566 7.13049 19.9679 7.67953 19.2732C8.72601 17.944 9.43108 17.5587 10.2148 17.8971C10.5327 18.0367 10.8518 18.2462 11.1803 18.4678C12.0555 19.0625 13.2721 19.88 14.8746 18.9927C15.9713 18.3785 16.6073 17.3249 17.1612 16.4074L17.1705 16.3921C17.2098 16.3277 17.2487 16.2633 17.2874 16.1992L17.2875 16.1991C17.4736 15.8911 17.6573 15.5872 17.865 15.3073C18.1255 14.9569 19.091 13.8613 20.3416 14.6415C21.1382 15.1327 21.8081 15.7973 22.5249 16.5089C22.7982 16.781 22.993 17.0904 23.1232 17.4227Z" fill="#9E9E9E"/>
</svg>
