<svg width="12" height="12" viewBox="0 0 12 12" fill="none"
    xmlns="http://www.w3.org/2000/svg">
    <path d="M8.70638 5.72846L4.92988 3.83963C4.82312 3.7862 4.70447 3.76097 4.58521 3.76633C4.46594 3.77169 4.35004 3.80746 4.2485 3.87024C4.14696 3.93302 4.06316 4.02073 4.00508 4.12503C3.94699 4.22933 3.91654 4.34675 3.91663 4.46613V8.03379C3.91654 8.15317 3.94699 8.27059 4.00508 8.37489C4.06316 8.47919 4.14696 8.56689 4.2485 8.62968C4.35004 8.69246 4.46594 8.72823 4.58521 8.73359C4.70447 8.73895 4.82312 8.71372 4.92988 8.66029L8.70638 6.77146C8.80314 6.72296 8.8845 6.6485 8.94136 6.5564C8.99822 6.4643 9.02834 6.3582 9.02834 6.24996C9.02834 6.14172 8.99822 6.03562 8.94136 5.94352C8.8845 5.85142 8.80314 5.77696 8.70638 5.72846Z" stroke="white" stroke-linecap="round" stroke-linejoin="round"/>
    <path d="M6.25 11.5C9.1495 11.5 11.5 9.1495 11.5 6.25C11.5 3.3505 9.1495 1 6.25 1C3.3505 1 1 3.3505 1 6.25C1 9.1495 3.3505 11.5 6.25 11.5Z" stroke="white"/>
</svg>