<svg width="28" height="18" viewBox="0 0 28 18" fill="none"
    xmlns="http://www.w3.org/2000/svg">
    <path fill-rule="evenodd" clip-rule="evenodd" d="M7.66768 4.56855C7.43695 4.63974 7.22447 4.83292 7.14282 5.04576C7.09582 5.16821 7.09424 5.29681 7.09424 9.00218C7.09424 12.7076 7.09582 12.8362 7.14282 12.9586C7.20444 13.1192 7.36144 13.2911 7.52649 13.3787L7.65494 13.4469H13.606H19.5571L19.6855 13.3787C19.8506 13.2911 20.0076 13.1192 20.0692 12.9586C20.1162 12.8362 20.1178 12.7076 20.1178 9.00218C20.1178 5.29681 20.1162 5.16821 20.0692 5.04576C20.0076 4.88513 19.8506 4.71324 19.6855 4.62568L19.5571 4.55751L13.6442 4.5532C10.3922 4.55082 7.70273 4.55774 7.66768 4.56855ZM19.4855 5.10708C19.6015 5.18445 19.608 5.22974 19.608 5.95106V6.63254H13.606H7.60397L7.59627 6.05614C7.58689 5.35248 7.59813 5.23643 7.68399 5.15012C7.71921 5.11469 7.77299 5.0808 7.80345 5.07476C7.8339 5.06873 10.4623 5.06517 13.6442 5.06684C18.6572 5.06945 19.4371 5.07483 19.4855 5.10708ZM19.608 10.4777C19.608 12.9139 19.613 12.8249 19.474 12.8997C19.3794 12.9505 7.835 12.9518 7.74042 12.9009C7.59754 12.8241 7.60455 12.9406 7.59691 10.5147C7.59303 9.28239 7.59555 8.25924 7.60251 8.24103C7.61281 8.21408 8.72786 8.20913 13.6116 8.21438L19.608 8.22084V10.4777ZM9.28268 9.84172C9.12876 9.96705 9.1439 10.2016 9.31084 10.2781C9.36115 10.3011 9.97562 10.3087 11.7973 10.3087H14.2169L14.2972 10.2365C14.3641 10.1764 14.3776 10.1457 14.3776 10.0525C14.3776 9.95933 14.3641 9.92857 14.2972 9.86847L14.2169 9.79633L11.7769 9.79689C9.50364 9.79743 9.33332 9.80048 9.28268 9.84172ZM9.28268 10.892C9.12876 11.0174 9.1439 11.252 9.31084 11.3284C9.36 11.3509 9.74049 11.359 10.7508 11.359H12.1239L12.199 11.2955C12.2403 11.2605 12.2813 11.1959 12.2901 11.1518C12.3104 11.0496 12.2487 10.9148 12.1636 10.8758C12.1184 10.8551 11.6983 10.8468 10.7185 10.8472C9.44806 10.8478 9.33268 10.8513 9.28268 10.892Z" fill="#007C16"/>
    <path fill-rule="evenodd" clip-rule="evenodd" d="M1.87828 0.128425C1.21571 0.283491 0.322333 0.904868 0.141171 1.33646C0.060438 1.52882 0.000439297 2.45698 5.05367e-05 3.5205C-0.000726985 5.34314 0.00367893 5.37263 0.299137 5.55632C0.6809 5.79351 1.33713 5.80062 1.6839 5.57124C1.92701 5.41043 1.94308 5.28554 1.94308 3.55299C1.94308 1.70634 1.94308 1.70608 2.26121 1.49573L2.57922 1.28529H5.54818C8.35555 1.28529 8.53568 1.2756 8.85848 1.10759C9.33069 0.861923 9.33069 0.42287 8.85848 0.177199C8.53451 0.00858973 8.36112 -0.000325067 5.45682 0.00327513C3.16016 0.00610386 2.2673 0.0373056 1.87828 0.128425ZM18.3533 0.177199C18.1057 0.306035 18.0118 0.433842 18.0118 0.642396C18.0118 0.85095 18.1057 0.978758 18.3533 1.10759C18.6761 1.2756 18.8562 1.28529 21.6636 1.28529H24.6326L24.9506 1.49573C25.2685 1.70591 25.2687 1.70728 25.2687 3.53798C25.2687 5.34203 25.2732 5.37271 25.5686 5.55632C25.9503 5.79351 26.6066 5.80062 26.9533 5.57124C27.1967 5.41026 27.2125 5.28588 27.2117 3.53541C27.2113 2.43718 27.1521 1.5301 27.0676 1.32815C26.8771 0.873237 25.8916 0.221344 25.2039 0.0953374C24.8942 0.0386771 23.4799 0.000274957 21.6902 1.77998e-05C18.8555 -0.000496514 18.6764 0.00901833 18.3533 0.177199ZM0.263501 12.445C0.0144347 12.6217 -0.000726985 12.7389 5.05367e-05 14.4808C0.000439297 15.5672 0.0599197 16.4703 0.144151 16.6719C0.334644 17.1268 1.32015 17.7787 2.00787 17.9047C2.31758 17.9613 3.73189 17.9997 5.52162 18C8.35633 18.0005 8.53542 17.991 8.85848 17.8228C9.33069 17.5771 9.33069 17.1381 8.85848 16.8924C8.53568 16.7244 8.35555 16.7147 5.54818 16.7147H2.57922L2.26121 16.5043C1.94334 16.2941 1.94308 16.2926 1.94308 14.4632C1.94308 12.7393 1.92766 12.6215 1.67885 12.445C1.5065 12.3226 1.26054 12.2573 0.971175 12.2573C0.681807 12.2573 0.435851 12.3226 0.263501 12.445ZM25.5329 12.445C25.2841 12.6215 25.2687 12.7393 25.2687 14.4632C25.2687 16.2926 25.2685 16.2941 24.9506 16.5043L24.6326 16.7147H21.6636C18.8562 16.7147 18.6761 16.7244 18.3533 16.8924C18.1057 17.0212 18.0118 17.149 18.0118 17.3576C18.0118 17.5662 18.1057 17.694 18.3533 17.8228C18.6764 17.991 18.8555 18.0005 21.6902 18C23.4799 17.9997 24.8942 17.9613 25.2039 17.9047C25.8916 17.7787 26.8771 17.1268 27.0676 16.6719C27.1519 16.4703 27.2113 15.5672 27.2117 14.4808C27.2125 12.7389 27.1974 12.6217 26.9483 12.445C26.7759 12.3226 26.53 12.2573 26.2406 12.2573C25.9512 12.2573 25.7053 12.3226 25.5329 12.445Z" fill="#007C16"/>
</svg>
