<svg width="24" height="24" viewBox="0 0 24 24" fill="none"
    xmlns="http://www.w3.org/2000/svg">
    <path d="M21.8139 2.18489C21.902 2.27319 21.9623 2.38545 21.9872 2.50772C22.0121 2.62999 22.0005 2.75689 21.9539 2.87264L14.5438 21.3998C14.4785 21.5629 14.3694 21.7049 14.2286 21.8101C14.0878 21.9153 13.9208 21.9795 13.7458 21.9959C13.5708 22.0122 13.3948 21.9799 13.2369 21.9026C13.0791 21.8253 12.9457 21.706 12.8513 21.5577L8.80434 15.196L2.44348 11.1485C2.29489 11.0543 2.17523 10.9208 2.0977 10.7628C2.02017 10.6048 1.98779 10.4285 2.00412 10.2532C2.02046 10.078 2.08488 9.91072 2.19027 9.76979C2.29567 9.62887 2.43794 9.5198 2.60139 9.45463L21.1262 2.04607C21.2419 1.99947 21.3688 1.98791 21.4911 2.01281C21.6133 2.03772 21.7256 2.098 21.8139 2.18617V2.18489ZM10.0752 14.8241L13.5912 20.349L19.6184 5.27975L10.0752 14.8241ZM18.7181 4.37931L3.65071 10.4073L9.17619 13.9224L18.7181 4.37931Z" fill="white"/>
</svg>
