<svg width="16" height="21" viewBox="0 0 16 21" fill="none"
    xmlns="http://www.w3.org/2000/svg">
    <g style="mix-blend-mode:overlay">
        <path d="M2.79884 7.14627C2.5365 6.65763 1.94104 6.48157 1.46884 6.75304C0.996636 7.02451 0.826504 7.64071 1.08884 8.12935C1.32755 8.57398 1.63725 9.39888 1.72637 10.3238C1.8148 11.2415 1.67984 12.1677 1.14794 12.9383C0.833965 13.3932 0.935775 14.0253 1.37534 14.3502C1.8149 14.6751 2.42576 14.5698 2.73974 14.1149C3.6305 12.8244 3.79193 11.3584 3.67289 10.1229C3.55454 8.89475 3.15291 7.80579 2.79884 7.14627Z" fill="#E7E7E9"/>
    </g>
    <g style="mix-blend-mode:overlay">
        <path d="M13.9152 1.07718C13.6551 0.587271 13.0604 0.408335 12.587 0.677516C12.1136 0.946696 11.9407 1.56206 12.2008 2.05197C13.5755 4.64107 15.5588 11.7443 12.1798 18.8775C11.942 19.3794 12.1425 19.9858 12.6275 20.2318C13.1125 20.4779 13.6985 20.2704 13.9363 19.7685C17.6706 11.8852 15.5044 4.07017 13.9152 1.07718Z" fill="#E7E7E9"/>
    </g>
    <g style="mix-blend-mode:overlay">
        <path d="M10.1956 2.85532C9.95149 2.35665 9.36298 2.15715 8.88109 2.40972C8.39919 2.6623 8.2064 3.2713 8.45048 3.76998C9.52281 5.96086 11.0363 11.7655 8.4482 17.122C8.20662 17.6219 8.40246 18.2299 8.88561 18.4799C9.36876 18.7299 9.95627 18.5272 10.1978 18.0272C13.1581 11.9005 11.4351 5.38775 10.1956 2.85532Z" fill="#E7E7E9"/>
    </g>
    <g style="mix-blend-mode:overlay">
        <path d="M6.72112 5.04973C6.46954 4.55507 5.87808 4.36513 5.40006 4.62547C4.92205 4.88582 4.73849 5.49787 4.99008 5.99253C5.3758 6.75093 5.87108 8.17629 6.01499 9.86341C6.15816 11.5417 5.9492 13.4167 5.00442 15.1439C4.73832 15.6304 4.9037 16.248 5.3738 16.5233C5.84389 16.7987 6.44069 16.6276 6.70678 16.1411C7.89601 13.967 8.13163 11.6554 7.96358 9.68542C7.79629 7.72424 7.22456 6.03957 6.72112 5.04973Z" fill="#E7E7E9"/>
    </g>
</svg>
