<svg width="24" height="24" viewBox="0 0 24 24" fill="none"
    xmlns="http://www.w3.org/2000/svg">
    <path opacity="0.87" d="M19.3935 4.43882C19.0703 4.10824 19.0703 3.57368 19.3935 3.24662C19.7167 2.91955 20.2393 2.91604 20.559 3.24662L22.7593 5.49739C22.914 5.65565 23 5.87017 23 6.09525C23 6.32033 22.914 6.53485 22.7593 6.69311L20.559 8.94388C20.2358 9.27446 19.7132 9.27446 19.3935 8.94388C19.0738 8.6133 19.0703 8.07874 19.3935 7.75167L20.1842 6.9428L14.2021 6.93577C13.7448 6.93577 13.3769 6.55947 13.3769 6.09173C13.3769 5.62399 13.7448 5.24769 14.2021 5.24769H20.1877L19.3935 4.43882ZM4.60994 16.2554L3.81919 17.0642H9.80137C10.2586 17.0642 10.6265 17.4405 10.6265 17.9083C10.6265 18.376 10.2586 18.7523 9.80137 18.7523H3.81575L4.6065 19.5612C4.92968 19.8918 4.92968 20.4263 4.6065 20.7534C4.28333 21.0804 3.76074 21.084 3.44101 20.7534L1.24066 18.5061C1.08595 18.3479 1 18.1333 1 17.9083C1 17.6832 1.08595 17.4687 1.24066 17.3104L3.44101 15.0596C3.76418 14.7291 4.28676 14.7291 4.6065 15.0596C4.92624 15.3902 4.92968 15.9248 4.6065 16.2518L4.60994 16.2554ZM4.30052 5.24769H12.6171C12.4899 5.50091 12.4143 5.78577 12.4143 6.09173C12.4143 7.10106 13.2153 7.92048 14.2021 7.92048H18.2383C18.1008 8.51834 18.2589 9.16895 18.7128 9.63669C19.4107 10.3506 20.5418 10.3506 21.2397 9.63669L21.9033 8.95795V16.5015C21.9033 17.743 20.9165 18.7523 19.7029 18.7523H11.3863C11.5135 18.4991 11.5892 18.2142 11.5892 17.9083C11.5892 16.8989 10.7881 16.0795 9.80137 16.0795H5.76512C5.90264 15.4817 5.74449 14.831 5.29067 14.3633C4.59275 13.6494 3.46163 13.6494 2.76371 14.3633L2.10017 15.0421V7.49846C2.10017 6.25702 3.08689 5.24769 4.30052 5.24769ZM6.50086 7.49846H4.30052V9.74923C5.51414 9.74923 6.50086 8.7399 6.50086 7.49846ZM19.7029 14.2508C18.4893 14.2508 17.5026 15.2601 17.5026 16.5015H19.7029V14.2508ZM12.0017 15.3762C12.8771 15.3762 13.7166 15.0205 14.3355 14.3873C14.9545 13.7541 15.3022 12.8954 15.3022 12C15.3022 11.1046 14.9545 10.2459 14.3355 9.6127C13.7166 8.97955 12.8771 8.62385 12.0017 8.62385C11.1264 8.62385 10.2869 8.97955 9.6679 9.6127C9.04893 10.2459 8.7012 11.1046 8.7012 12C8.7012 12.8954 9.04893 13.7541 9.6679 14.3873C10.2869 15.0205 11.1264 15.3762 12.0017 15.3762Z" fill="#007C16"/>
</svg>
