<svg width="24" height="24" viewBox="0 0 24 24" fill="none"
    xmlns="http://www.w3.org/2000/svg">
    <path d="M4.41 14.5259L7.812 11.1239L10.641 13.9529L13.798 10.7959L12.005 9.00291H17.005V14.0029L15.212 12.2099L10.641 16.7809L7.812 13.9529L5.338 16.4269C6.46142 18.1178 8.18563 19.3183 10.1612 19.7852C12.1368 20.2522 14.2161 19.9506 15.9776 18.9416C17.7391 17.9326 19.0512 16.2917 19.6479 14.3513C20.2447 12.411 20.0814 10.3163 19.1913 8.49184C18.3011 6.66737 16.7506 5.24953 14.854 4.52565C12.9575 3.80177 10.8566 3.82598 8.97719 4.59338C7.09779 5.36077 5.58041 6.81396 4.73254 8.65846C3.88467 10.503 3.76973 12.6008 4.411 14.5269M2.874 16.0849L2.864 16.0749L2.868 16.0709C2.29793 14.7909 2.00421 13.4051 2.006 12.0039C2.006 6.48091 6.483 2.00391 12.006 2.00391C17.529 2.00391 22.006 6.48091 22.006 12.0039C22.006 17.5269 17.529 22.0039 12.006 22.0039C7.936 22.0039 4.436 19.5739 2.874 16.0849Z" fill="#007C16"/>
</svg>
