<svg width="80" height="26" viewBox="0 0 80 26" fill="none"
    xmlns="http://www.w3.org/2000/svg">
    <path d="M41.3741 8.3119C41.3284 11.9338 44.5813 13.9549 47.0316 15.1566C49.5491 16.3895 50.3947 17.1802 50.3847 18.2828C50.3659 19.9702 48.3766 20.715 46.515 20.7439C43.2672 20.7945 41.3787 19.8614 39.8775 19.1556L38.7075 24.6655C40.2137 25.3641 43.0028 25.9733 45.895 26C52.6841 26 57.1256 22.6272 57.1497 17.3978C57.1763 10.761 48.0284 10.3936 48.0909 7.42718C48.1125 6.52768 48.9653 5.56779 50.8341 5.32373C51.7591 5.20044 54.3125 5.10609 57.2075 6.44779L58.3438 1.11683C56.7869 0.546307 54.7859 0 52.2947 0C45.9047 0 41.4103 3.41873 41.3741 8.3119ZM69.2619 0.459187C68.0222 0.459187 66.9775 1.18696 66.5112 2.30379L56.8134 25.6084H63.5975L64.9475 21.8535H73.2375L74.0206 25.6084H80L74.7822 0.459187H69.2619ZM70.2109 7.25294L72.1687 16.6968H66.8069L70.2109 7.25294ZM33.1488 0.459499L27.8012 25.6081H34.2659L39.6109 0.458872L33.1488 0.459499ZM23.5853 0.459499L16.8566 17.5768L14.1347 3.02214C13.8153 1.39737 12.5541 0.459187 11.1534 0.459187H0.154062L0 1.18948C2.25812 1.68263 4.82375 2.47803 6.37813 3.3291C7.32937 3.84899 7.60063 4.30346 7.91313 5.53885L13.0684 25.6084H19.9L30.3737 0.459187L23.5853 0.459499Z" fill="white"/>
</svg>
